<svg xmlns="http://www.w3.org/2000/svg" width="378" height="279" viewBox="0 0 378 279">
<g>
<path d="M 147.00 205.12 C139.59,203.53 130.67,196.43 126.39,188.71 C125.25,186.66 124.56,185.41 124.12,183.30 C126.52,191.47 135.13,200.43 143.36,202.97 C148.48,204.54 163.95,203.66 168.00,201.56 C179.57,195.57 185.47,186.24 187.02,171.44 C188.25,159.78 188.22,98.65 186.98,89.10 C186.74,87.24 186.42,85.53 186.00,83.93 C187.68,89.30 189.00,95.85 189.14,100.50 C189.26,104.28 189.48,103.43 190.05,97.00 C190.52,91.77 191.12,87.81 192.11,84.49 C189.67,93.72 188.78,112.10 189.34,141.50 C189.70,160.30 190.00,167.90 190.89,173.41 C190.10,170.94 189.11,170.67 188.59,173.21 C185.59,187.74 183.70,192.02 177.80,197.67 C172.04,203.18 166.39,205.47 158.00,205.68 C153.88,205.78 148.93,205.53 147.00,205.12 ZM 82.67 96.33 C82.22,95.89 82.01,95.05 82.05,93.65 C82.24,94.61 82.97,95.00 84.48,95.00 C85.23,95.00 85.75,95.03 86.16,94.82 C87.23,94.31 87.57,92.32 89.06,84.61 C90.66,76.36 96.48,62.94 102.14,54.49 C108.02,45.69 120.76,32.60 128.63,27.26 C139.83,19.66 152.07,14.42 167.00,10.85 C170.26,10.07 178.61,9.53 187.50,9.52 C199.53,9.50 204.46,9.95 212.41,11.76 C217.86,13.00 222.81,14.38 223.41,14.82 C222.81,14.38 217.92,13.12 212.55,12.01 C201.68,9.77 181.25,9.26 173.19,11.03 C160.40,13.83 158.21,14.42 154.50,16.04 C152.30,17.00 148.02,18.83 145.00,20.10 C135.85,23.94 126.02,31.01 116.64,40.50 C108.03,49.20 98.04,62.86 96.51,68.00 C96.11,69.38 94.88,71.97 93.79,73.78 C91.34,77.82 89.03,86.26 89.01,91.21 C89.00,93.86 88.44,95.23 87.07,95.96 C84.82,97.17 83.60,97.27 82.67,96.33 ZM 275.98 193.38 C271.73,189.41 268.85,185.43 266.92,180.12 C268.51,183.87 270.77,186.90 274.02,190.25 C277.09,193.41 280.03,196.00 280.55,196.00 C281.51,196.00 281.42,82.52 280.46,80.14 C280.60,80.13 280.73,80.15 280.85,80.18 C282.97,80.82 282.88,88.81 282.79,111.70 C282.72,128.64 282.80,154.86 282.95,169.96 C283.16,189.09 282.91,197.53 282.16,197.78 C281.56,197.98 278.78,196.00 275.98,193.38 ZM 205.39 271.00 C202.84,269.71 201.03,268.01 199.31,265.22 C200.47,266.74 201.96,267.99 203.76,268.94 C208.58,271.48 213.66,271.51 217.75,269.01 C220.49,267.34 221.00,267.27 221.00,268.57 C221.00,269.76 221.94,270.04 225.13,269.81 L 229.26 269.50 L 229.54 246.75 L 229.82 224.49 C230.13,224.63 230.39,224.79 230.59,224.99 C231.06,225.46 232.24,225.61 233.59,225.41 C233.12,225.89 233.00,226.80 233.00,228.50 L 233.00 232.00 L 239.39 232.00 C244.56,232.00 245.92,232.34 246.47,233.75 C246.51,233.85 246.54,234.03 246.58,234.29 C245.98,234.04 243.32,233.75 240.36,233.61 C237.14,233.46 233.82,233.15 233.00,232.92 C231.71,232.56 231.48,235.17 231.35,251.82 C231.26,262.45 230.99,271.35 230.74,271.60 C230.31,272.02 228.80,272.04 220.00,271.73 C218.07,271.66 214.93,271.93 213.00,272.34 C210.37,272.89 208.48,272.55 205.39,271.00 ZM 213.99 203.12 C215.37,203.57 220.36,203.82 225.07,203.67 C234.77,203.37 239.49,201.28 246.20,194.33 C253.20,187.09 254.26,183.04 255.07,160.50 C255.46,149.50 256.11,138.81 256.51,136.74 C256.66,135.95 256.74,135.19 256.76,134.50 C256.78,135.25 256.71,136.01 256.55,136.67 C256.15,138.23 255.88,148.80 255.94,160.16 C256.06,185.45 255.23,188.62 246.23,197.20 C238.70,204.36 233.33,206.42 223.76,205.78 C213.95,205.14 207.64,202.29 201.19,195.56 C204.86,198.86 209.48,201.65 213.99,203.12 ZM 331.50 168.83 C331.41,168.61 331.30,167.89 331.17,166.81 C331.77,169.56 332.54,166.02 334.96,152.50 L 337.10 140.50 L 348.80 140.28 C366.34,139.96 369.96,138.19 353.30,138.09 C351.33,138.07 349.56,138.08 347.99,138.10 C350.11,138.04 352.43,138.00 354.81,138.00 C369.70,138.00 376.00,138.59 376.00,139.98 C376.00,140.70 368.92,141.38 348.32,142.65 C343.01,142.98 340.27,142.90 338.71,144.22 C336.77,145.85 336.63,149.61 335.63,158.92 C334.91,165.50 334.04,169.49 333.25,169.75 C332.56,169.98 331.77,169.57 331.50,168.83 ZM 97.10 196.62 C97.01,196.51 96.92,196.19 96.85,195.67 L 99.24 194.16 C106.13,189.84 111.81,178.83 114.02,165.50 C114.89,160.27 115.18,137.93 114.92,121.19 C115.18,127.27 115.55,131.89 115.84,132.20 C116.20,132.58 116.20,141.58 115.83,152.20 C114.98,176.83 113.21,182.99 104.02,193.34 C100.51,197.29 98.46,198.26 97.10,196.62 ZM 287.91 177.75 C287.90,177.73 287.90,177.40 287.88,176.78 L 290.50 176.31 C295.72,175.39 301.91,171.94 304.24,168.66 C306.23,165.89 306.54,164.04 306.84,153.50 C307.02,146.90 307.56,141.03 308.04,140.45 C308.53,139.86 308.50,136.60 307.97,132.95 C307.46,129.40 307.03,122.73 307.02,118.12 C307.01,114.86 307.00,112.87 306.78,111.44 C308.04,115.88 308.27,123.58 308.47,139.40 C308.81,166.23 308.49,168.53 303.88,172.60 C301.01,175.13 293.89,178.00 290.48,178.00 C289.12,178.00 287.96,177.89 287.91,177.75 ZM 95.31 272.02 C92.45,271.01 89.59,269.87 88.96,269.47 C87.84,268.78 86.44,266.27 85.28,263.31 C86.65,265.72 88.61,267.59 91.13,268.83 C106.23,276.31 121.51,263.61 116.96,247.35 C115.81,243.24 113.72,240.40 110.24,238.42 C116.30,241.64 118.99,246.88 119.00,255.10 C119.00,260.88 118.62,262.23 115.94,265.93 C111.06,272.66 103.48,274.90 95.31,272.02 ZM 273.20 272.14 C272.86,271.93 272.60,271.27 272.39,270.00 L 275.25 270.00 L 279.00 270.00 L 279.00 252.50 C279.00,236.28 278.87,235.00 277.19,235.00 C276.40,235.00 275.19,235.39 274.20,235.94 C275.41,234.90 275.03,234.03 273.00,232.00 C272.49,231.49 272.09,230.97 271.77,230.43 C273.10,231.52 276.88,230.98 278.43,229.43 C280.42,227.44 280.14,225.01 278.72,223.55 C281.00,225.06 281.14,225.64 280.48,229.35 C280.07,231.63 279.75,234.18 279.78,235.00 C279.80,235.82 280.08,244.22 280.39,253.66 L 280.96 270.82 L 277.83 271.91 C276.11,272.51 274.66,272.99 274.60,272.98 C274.55,272.98 273.91,272.60 273.20,272.14 ZM 310.22 271.03 C304.59,268.36 303.68,267.50 301.48,262.78 C301.24,262.26 301.02,261.76 300.81,261.27 C302.42,264.47 304.97,267.24 307.96,268.75 C313.12,271.35 320.70,271.73 324.80,269.59 C328.43,267.70 332.63,263.13 333.94,259.68 C335.41,255.79 335.33,249.52 333.96,245.39 C336.38,250.58 336.69,258.41 334.64,263.33 C332.90,267.49 327.99,271.63 323.22,272.96 C317.90,274.43 317.20,274.33 310.22,271.03 ZM 82.91 176.40 C79.35,175.29 75.81,172.34 73.46,168.82 C74.86,170.47 76.91,171.68 79.98,173.25 C84.17,175.39 86.53,176.65 87.92,175.96 C89.78,175.04 89.91,170.65 90.34,160.25 C90.70,151.59 90.99,134.65 91.00,122.62 L 91.00 109.32 L 91.37 123.14 C91.70,135.44 91.86,152.70 91.73,161.50 C91.58,172.30 91.62,176.50 89.82,177.55 C88.60,178.27 86.51,177.52 82.91,176.40 ZM 127.76 270.42 C125.68,269.30 124.60,267.97 124.05,264.18 C124.34,265.52 124.80,266.24 125.50,267.01 C126.60,268.24 128.40,269.60 129.50,270.05 C133.04,271.50 138.41,271.05 141.75,269.01 C144.40,267.39 145.00,267.30 145.00,268.51 C145.00,269.58 146.13,270.00 149.00,270.00 L 153.00 270.00 L 153.00 236.18 C153.61,236.30 154.00,236.49 154.01,236.75 C154.11,251.30 154.15,269.77 154.09,270.60 C153.95,272.38 131.14,272.23 127.76,270.42 ZM 53.80 270.96 C49.16,268.51 44.74,262.84 45.17,259.88 C45.20,259.69 45.25,259.51 45.31,259.33 C44.80,260.94 45.58,263.01 47.67,265.23 C49.22,266.89 51.85,268.85 53.50,269.58 C58.06,271.62 66.43,271.33 71.02,268.99 C77.07,265.90 79.92,258.80 77.86,251.94 C77.32,250.11 76.43,248.60 75.11,247.34 C75.39,247.57 75.65,247.81 75.89,248.05 C82.87,255.03 80.41,267.84 71.36,271.62 C66.61,273.61 58.22,273.29 53.80,270.96 ZM 287.71 271.38 C287.64,271.30 287.56,270.82 287.49,270.00 L 294.00 270.00 L 294.00 246.97 C294.00,231.05 293.92,225.04 292.59,223.46 C293.94,223.68 295.00,224.36 295.00,225.32 C295.00,225.97 295.07,236.62 295.17,249.00 L 295.35 271.50 L 291.89 271.80 C289.99,271.96 288.11,271.77 287.71,271.38 ZM 183.04 271.07 C182.93,270.87 182.83,270.50 182.73,270.00 L 190.00 270.00 L 190.00 256.95 C190.00,245.06 189.25,240.34 186.44,238.09 C188.04,239.05 189.26,240.32 189.83,241.82 C190.39,243.29 191.13,250.63 191.47,258.12 C192.02,270.16 191.91,271.82 190.47,272.37 C187.34,273.57 184.07,273.00 183.04,271.07 ZM 181.41 248.08 C180.75,244.87 179.41,244.00 176.86,244.00 C170.80,244.00 168.62,249.17 169.14,262.35 L 169.50 271.50 L 166.00 271.79 C164.07,271.96 161.69,271.49 160.70,270.77 C160.34,270.50 160.05,270.26 159.84,270.00 L 168.00 270.00 L 168.00 259.13 C168.00,249.66 168.26,247.93 170.07,245.63 C171.58,243.72 173.07,243.00 175.52,243.00 C178.96,243.00 180.64,244.00 181.41,248.08 ZM 330.00 131.20 C330.00,131.04 330.00,130.88 330.00,130.72 C330.00,122.35 331.30,110.78 332.08,112.18 C332.51,112.94 333.37,119.16 334.00,125.99 C334.63,132.83 335.36,138.78 335.63,139.21 C335.90,139.65 336.96,139.55 337.99,139.00 C338.39,138.79 339.76,138.59 341.76,138.43 C337.05,138.94 335.27,140.08 334.20,142.36 C333.42,144.02 333.20,142.93 333.21,137.50 C333.22,133.65 332.87,126.90 332.43,122.50 C331.68,115.04 331.58,114.77 330.87,118.50 C330.46,120.70 330.09,125.34 330.06,128.82 C330.05,129.68 330.03,130.47 330.00,131.20 ZM 330.03 153.36 C329.55,147.39 328.78,142.38 328.22,141.82 C327.44,141.04 326.07,140.98 323.82,141.62 C321.03,142.42 320.44,143.15 319.83,146.53 C317.58,158.90 314.81,162.68 313.61,157.06 C314.16,159.12 315.04,158.56 315.99,154.92 C318.87,143.95 319.57,141.04 321.25,140.27 C321.93,139.96 322.77,140.00 323.97,140.00 C327.37,140.00 327.93,140.36 328.90,143.15 C329.51,144.88 330.00,148.64 330.00,151.50 C330.00,152.05 330.01,152.67 330.03,153.36 ZM 4.50 141.27 C2.85,141.04 1.06,140.42 0.52,139.90 C-0.10,139.29 3.40,139.12 10.02,139.43 C15.79,139.70 21.40,139.94 22.50,139.97 C24.16,140.02 24.25,140.19 23.00,141.00 C21.53,141.95 10.41,142.12 4.50,141.27 ZM 247.66 270.00 L 255.00 270.00 L 255.01 253.75 C255.02,244.81 255.29,236.51 255.62,235.30 C255.71,234.97 255.81,234.68 255.94,234.44 C255.91,234.55 255.89,234.67 255.88,234.80 C255.81,235.73 255.70,244.60 255.63,254.50 L 255.50 272.50 L 252.69 272.82 C249.82,273.15 248.37,273.02 247.66,270.00 ZM 60.49 160.98 C60.32,160.71 59.94,159.08 59.50,156.86 C59.70,157.58 59.88,158.00 60.01,158.00 C60.40,158.00 61.49,154.29 62.45,149.75 C63.42,145.16 64.90,140.94 65.79,140.25 C66.24,139.89 66.54,139.59 66.70,139.31 C66.64,140.01 66.33,140.93 65.73,142.19 C64.88,144.01 63.86,148.99 63.47,153.26 C62.79,160.76 61.85,163.18 60.49,160.98 ZM 40.55 169.81 C40.03,168.24 39.27,163.28 38.72,158.46 C38.85,159.56 39.01,160.74 39.19,162.00 C39.75,166.05 40.07,168.45 40.53,168.48 C41.19,168.52 42.14,163.76 44.51,152.11 C45.79,145.85 47.38,140.38 48.06,139.96 C48.40,139.75 48.63,139.41 48.73,138.98 C48.82,140.22 48.60,141.13 48.10,141.44 C47.50,141.81 47.00,143.19 47.00,144.50 C47.00,145.80 46.10,150.61 45.01,155.19 C43.91,159.76 43.01,164.94 43.01,166.69 C43.00,169.99 41.32,172.13 40.55,169.81 ZM 216.49 263.19 C213.77,264.09 210.30,263.08 207.04,260.03 C204.72,257.87 204.00,256.33 204.00,253.53 C204.00,247.01 207.27,243.09 212.75,243.03 C217.65,242.98 221.30,247.85 221.53,253.48 C221.15,245.92 214.04,240.87 208.50,246.41 C202.72,252.19 204.74,261.14 212.27,263.07 C213.88,263.48 215.29,263.52 216.49,263.19 ZM 130.00 236.50 L 131.50 236.50 L 131.50 248.22 C131.50,257.03 131.64,259.42 132.79,261.09 C130.09,258.07 130.00,257.59 130.00,246.92 L 130.00 236.50 ZM 27.55 144.86 C28.04,145.12 28.77,144.59 29.58,143.25 C30.66,141.47 30.33,134.12 29.25,133.11 C30.12,132.99 30.99,134.14 31.43,136.50 C31.91,139.04 32.61,140.00 33.99,140.00 C35.03,140.00 36.16,140.45 36.50,141.00 C36.85,141.57 36.00,142.00 34.53,142.00 C32.70,142.00 31.68,142.72 31.00,144.50 C29.83,147.59 28.42,147.65 27.55,144.86 ZM 108.01 247.27 C105.01,243.37 99.22,242.63 94.92,246.92 C90.96,250.89 90.92,256.84 94.29,260.51 C90.30,256.37 89.61,249.30 93.45,245.45 C97.51,241.40 104.51,242.45 108.01,247.27 ZM 70.27 224.78 C71.30,225.23 72.37,225.78 73.49,226.44 C80.54,230.57 80.69,235.84 73.82,237.52 C72.21,237.92 71.42,237.86 70.62,236.85 C71.64,237.15 78.00,233.49 78.00,232.54 C78.00,230.02 74.40,226.76 70.27,224.78 ZM 291.00 90.78 C291.56,94.13 292.07,94.56 294.26,94.82 C296.87,95.12 297.00,94.93 297.00,90.81 C297.00,89.30 296.66,86.77 296.15,84.21 C297.32,88.85 298.03,92.76 297.82,94.25 C297.09,99.34 291.00,96.30 291.00,90.85 C291.00,90.83 291.00,90.80 291.00,90.78 ZM 58.05 149.08 C57.47,145.67 57.01,142.63 57.00,141.75 C57.00,141.34 55.90,141.00 54.56,141.00 C53.22,141.00 51.84,140.55 51.50,140.00 C51.15,139.44 51.97,139.00 53.38,139.00 C54.76,139.00 56.17,139.47 56.53,140.05 C57.36,141.39 58.25,140.81 59.08,138.59 C58.83,139.32 58.59,139.84 58.39,140.08 C57.28,141.33 57.20,142.94 58.05,149.08 ZM 123.02 162.40 C123.02,162.11 123.01,161.81 123.00,161.50 C122.65,146.17 122.34,140.75 121.40,137.83 C122.81,140.96 123.00,144.22 123.01,159.21 C123.01,160.28 123.02,161.35 123.02,162.40 ZM 96.51 98.53 C96.74,81.59 97.17,80.40 98.35,80.17 C98.39,80.16 98.44,80.16 98.49,80.15 C97.22,81.22 96.73,86.10 96.51,98.53 ZM 136.85 66.45 C138.46,65.24 140.07,64.22 141.56,63.51 C145.07,61.86 148.91,61.01 152.83,60.88 C147.20,61.22 141.69,63.08 136.85,66.45 ZM 70.35 136.46 C70.46,132.96 70.61,129.28 70.81,125.50 C70.87,124.53 70.92,123.63 70.97,122.78 C70.95,123.48 70.93,124.21 70.93,124.96 C70.90,129.86 70.65,134.56 70.35,136.46 ZM 324.48 237.13 C320.25,235.84 315.32,235.84 310.97,237.26 C315.46,235.59 320.30,235.65 324.48,237.13 ZM 214.98 62.11 C213.93,62.46 212.78,62.92 211.42,63.50 C208.34,64.80 205.28,66.80 202.52,69.17 C206.44,65.62 210.49,63.31 214.98,62.11 ZM 250.27 224.65 C257.47,224.58 264.90,224.66 267.31,224.91 C267.67,224.95 267.88,226.06 267.87,227.56 C267.81,226.33 267.55,225.34 267.17,225.10 C266.69,224.81 258.64,224.64 250.27,224.65 ZM 223.41 14.82 C224.01,15.26 227.88,16.94 232.00,18.54 C247.32,24.50 260.50,34.43 270.97,47.84 C260.52,34.53 247.23,24.49 232.00,18.55 C227.88,16.94 224.01,15.26 223.41,14.82 ZM 305.56 108.54 C305.05,107.90 304.36,107.25 303.44,106.38 C301.51,104.56 297.73,102.62 294.36,101.42 C296.79,102.23 299.42,103.40 301.33,104.64 C303.20,105.86 304.56,106.92 305.56,108.54 ZM 89.08 66.87 C87.32,71.23 85.28,77.81 83.84,83.40 C83.91,83.12 83.97,82.84 84.04,82.56 C85.35,77.03 87.02,71.83 89.08,66.87 ZM 109.31 90.52 C110.37,92.19 111.29,93.90 111.93,95.51 C112.68,97.38 113.21,98.97 113.59,100.85 C112.62,97.23 111.12,93.64 109.31,90.52 ZM 123.57 91.84 C123.88,84.66 124.35,81.76 125.23,79.77 C125.41,79.35 125.63,78.92 125.87,78.48 C124.48,81.44 123.89,85.14 123.57,91.84 ZM 263.07 232.73 C266.71,232.52 267.38,232.31 267.67,230.50 L 267.50 232.50 L 263.07 232.73 ZM 74.78 107.23 C73.20,109.31 72.18,112.03 71.59,115.60 C72.02,112.39 72.60,110.61 73.53,109.00 C73.89,108.38 74.31,107.79 74.78,107.23 ZM 71.50 165.06 C71.26,164.43 71.06,163.79 70.92,163.15 C70.57,161.62 70.34,158.72 70.23,154.85 C70.48,159.53 70.80,162.71 71.50,165.06 ZM 197.13 261.06 C196.03,258.50 195.92,256.60 196.19,252.42 C195.98,255.71 196.30,258.60 197.13,261.06 ZM 174.42 67.60 C177.65,69.92 180.49,72.79 182.71,76.13 C183.09,76.71 183.48,77.43 183.87,78.26 C182.15,74.93 179.71,72.05 176.26,69.08 C175.66,68.56 175.04,68.07 174.42,67.60 ZM 48.25 135.61 C47.93,133.09 47.58,128.40 47.39,123.50 C47.13,116.90 46.65,110.82 46.32,110.00 C45.89,108.92 45.43,109.30 45.04,110.71 C45.43,109.31 45.89,108.92 46.33,110.00 C46.66,110.82 47.14,116.68 47.40,123.00 C47.60,127.80 47.94,132.75 48.25,135.61 ZM 160.09 242.92 C159.89,238.05 160.31,237.82 162.07,237.17 C162.08,237.17 162.09,237.16 162.10,237.16 C160.56,237.73 160.11,238.15 160.09,242.92 ZM 191.99 178.53 C192.66,181.09 193.57,183.86 194.43,186.07 C193.40,183.84 192.62,181.40 191.99,178.53 ZM 291.16 68.46 C288.13,61.10 284.34,54.32 279.68,47.97 C284.12,53.99 287.75,60.33 290.56,67.01 C290.76,67.48 290.96,67.96 291.16,68.46 ZM 104.39 263.04 C106.28,262.32 108.10,260.09 109.13,257.56 C108.22,260.09 106.54,262.22 104.39,263.04 ZM 284.13 69.55 C286.36,74.39 288.23,79.27 289.44,83.44 C288.18,79.31 286.27,74.27 284.13,69.55 ZM 299.31 251.49 C299.57,249.86 300.09,248.22 300.88,246.50 C301.36,245.46 301.84,244.54 302.35,243.73 C300.99,246.00 299.83,248.93 299.31,251.49 ZM 57.82 239.92 C58.67,240.84 60.38,241.51 63.82,242.51 C60.42,241.63 58.69,240.97 57.82,239.92 ZM 38.02 150.29 C38.01,149.93 38.00,149.60 38.00,149.30 C38.00,145.68 38.46,144.19 39.87,143.31 C38.53,144.15 37.93,146.18 38.02,150.29 ZM 274.98 84.51 C277.15,82.37 278.73,80.79 279.88,80.30 C278.95,80.86 277.05,82.48 274.98,84.51 ZM 144.83 242.41 C144.89,238.83 145.25,237.46 146.06,236.94 C146.12,236.90 146.19,236.86 146.27,236.83 C145.25,237.64 144.89,239.25 144.83,242.41 ZM 272.04 223.96 C271.35,224.97 270.93,226.42 270.90,227.73 C270.79,226.29 271.23,224.94 272.04,223.96 ZM 222.53 226.80 C222.72,226.02 222.95,225.45 223.20,225.20 C223.46,224.94 223.82,224.72 224.25,224.55 C223.43,224.98 222.88,225.70 222.53,226.80 ZM 271.72 241.80 C271.88,238.37 272.26,237.35 273.04,236.75 C272.29,237.49 271.91,238.59 271.72,241.80 ZM 26.77 141.15 C26.51,139.30 26.72,138.30 27.44,135.75 C26.81,137.97 26.67,138.77 26.77,141.15 ZM 159.70 266.25 L 159.41 267.66 C159.48,266.99 159.64,266.15 159.88,265.06 C159.83,265.55 159.77,265.95 159.70,266.25 ZM 134.95 263.17 C136.03,263.85 137.11,263.91 138.86,263.53 C138.85,263.53 138.83,263.54 138.82,263.54 C137.03,263.93 136.06,263.94 134.95,263.17 ZM 63.69 117.07 C62.72,117.50 62.22,119.99 60.96,129.50 C60.93,129.73 60.90,129.96 60.87,130.18 C60.89,130.04 60.91,129.89 60.93,129.74 C62.20,120.05 62.70,117.51 63.69,117.07 ZM 69.25 234.53 C68.72,233.58 68.25,232.98 67.62,232.60 C68.25,232.95 68.70,233.48 69.10,234.25 C69.15,234.34 69.20,234.44 69.25,234.53 ZM 56.07 225.06 C56.12,225.04 56.17,225.02 56.22,225.00 C57.40,224.49 58.51,224.10 59.60,223.81 C58.42,224.16 57.19,224.59 56.07,225.06 ZM 83.03 254.42 C83.02,254.18 83.01,253.94 83.01,253.72 C83.00,250.56 83.47,247.86 84.45,245.56 C83.47,247.86 83.01,250.56 83.02,253.72 C83.02,253.95 83.03,254.19 83.03,254.42 ZM 65.57 136.13 C65.20,134.29 65.00,131.08 65.00,126.80 C65.00,130.95 65.21,134.26 65.57,136.13 ZM 288.00 100.50 C287.84,100.63 287.70,101.59 287.58,103.34 C287.69,101.57 287.82,100.61 287.97,100.52 C287.98,100.51 287.99,100.50 288.00,100.50 ZM 324.57 139.00 C326.15,139.00 327.32,138.69 328.16,137.95 C327.33,138.72 326.18,139.00 324.57,139.00 ZM 143.32 260.42 C144.65,257.99 145.05,253.96 144.88,247.35 C145.05,253.97 144.66,258.00 143.32,260.42 ZM 96.24 138.37 L 96.22 143.83 C96.22,141.91 96.23,139.94 96.24,137.90 C96.25,135.62 96.26,133.43 96.27,131.32 C96.26,133.58 96.25,135.92 96.24,138.37 ZM 163.76 236.85 C164.98,236.77 166.41,236.93 167.69,237.32 C166.45,236.94 164.98,236.77 163.76,236.85 ZM 119.62 134.00 C119.40,133.32 119.51,132.94 119.96,132.51 C119.54,132.92 119.42,133.30 119.62,134.00 ZM 256.13 131.65 C255.98,131.40 255.85,130.74 255.72,129.69 C255.85,130.68 255.98,131.34 256.13,131.65 ZM 254.22 84.79 C253.91,80.94 253.42,79.32 252.56,77.60 C253.42,79.33 253.92,80.95 254.22,84.79 ZM 100.68 235.44 C99.17,235.39 97.79,235.76 95.38,236.57 C97.81,235.76 99.18,235.39 100.68,235.44 ZM 197.90 244.65 C199.09,242.20 201.00,240.29 203.99,238.25 C201.00,240.28 199.09,242.20 197.90,244.65 ZM 48.91 231.70 C49.75,229.94 50.49,228.76 51.49,227.79 C50.50,228.76 49.75,229.95 48.91,231.70 ZM 69.95 235.84 C69.86,235.67 69.76,235.49 69.65,235.30 C69.76,235.49 69.86,235.68 69.95,235.84 ZM 120.87 131.81 C120.88,131.80 120.89,131.79 120.91,131.78 C120.91,131.78 120.91,131.78 120.91,131.78 C120.89,131.79 120.88,131.80 120.87,131.81 Z" fill="rgba(5,4,5,1)"/>
<path d="M 213.99 203.12 C206.90,200.80 199.56,195.26 196.04,189.57 C194.92,187.75 193.08,182.72 191.95,178.39 C190.19,171.63 189.81,166.35 189.34,141.50 C188.82,114.39 189.54,96.65 191.57,86.81 C190.66,92.13 190.43,99.77 190.24,112.56 C189.90,135.22 189.99,136.76 191.82,139.03 C193.48,141.08 194.01,141.24 195.36,140.12 C197.52,138.32 215.13,135.73 216.42,137.02 C218.84,139.44 224.89,137.20 225.07,133.82 C225.24,130.56 226.87,136.99 226.93,141.18 C226.97,143.76 227.44,147.02 227.98,148.43 C228.51,149.85 229.15,151.00 229.40,151.00 C229.64,151.00 230.58,147.75 231.48,143.78 C233.52,134.84 234.48,133.45 237.39,135.30 C238.55,136.04 241.39,137.39 243.70,138.30 C247.50,139.79 248.06,139.80 249.45,138.40 C250.30,137.55 251.00,136.38 251.00,135.80 C251.00,135.17 252.19,134.99 254.00,135.35 C255.55,135.66 256.34,135.68 256.71,135.29 C256.67,135.75 256.60,136.24 256.51,136.74 C256.11,138.81 255.46,149.50 255.07,160.50 C254.26,183.04 253.20,187.09 246.20,194.33 C239.49,201.28 234.77,203.37 225.07,203.67 C220.36,203.82 215.37,203.57 213.99,203.12 ZM 143.36 202.97 C134.44,200.22 125.07,189.92 123.64,181.27 C123.30,179.20 123.02,169.27 123.01,159.21 C123.00,142.93 122.78,140.49 121.01,137.01 C120.97,136.94 120.93,136.87 120.90,136.80 C121.36,137.41 121.75,137.41 122.10,136.83 C122.62,135.99 123.25,136.46 124.09,138.31 C124.77,139.80 125.82,140.92 126.41,140.81 C127.01,140.69 129.28,140.95 131.45,141.38 C134.62,142.01 135.65,141.83 136.64,140.48 C138.82,137.49 143.08,139.82 144.55,144.82 C145.24,147.14 146.06,149.70 146.37,150.52 C146.68,151.33 147.38,152.00 147.92,152.00 C149.09,152.00 150.99,145.66 150.99,141.75 C151.00,138.56 151.55,138.43 155.91,140.61 C158.29,141.79 160.51,142.04 164.37,141.56 C167.25,141.20 171.73,141.38 174.33,141.96 C176.92,142.54 180.85,142.73 183.07,142.37 L 187.11 141.73 L 186.80 112.11 L 186.54 86.34 C186.71,87.22 186.85,88.14 186.98,89.10 C188.22,98.65 188.25,159.78 187.02,171.44 C185.47,186.24 179.57,195.57 168.00,201.56 C163.95,203.66 148.48,204.54 143.36,202.97 ZM 203.76 268.94 C198.25,266.03 195.68,260.39 196.19,252.34 C196.64,245.34 198.49,241.99 203.99,238.25 C207.62,235.78 213.83,235.25 216.88,237.16 C220.34,239.32 222.00,237.56 222.00,231.73 C222.00,231.16 222.01,230.63 222.03,230.13 C222.14,232.00 222.72,233.82 223.75,234.58 C226.19,236.39 228.00,234.44 228.69,229.24 C229.16,225.74 228.95,225.12 227.07,224.52 C226.06,224.20 224.84,224.29 223.97,224.71 C224.73,224.20 225.76,224.00 227.11,224.00 L 229.82 224.00 L 229.54 246.75 L 229.26 269.50 L 225.13 269.81 C221.94,270.04 221.00,269.76 221.00,268.57 C221.00,267.27 220.49,267.34 217.75,269.01 C213.66,271.51 208.58,271.48 203.76,268.94 ZM 307.96 268.75 C302.82,266.16 298.99,259.85 299.02,254.04 C299.05,249.92 301.88,243.25 304.65,240.79 C312.63,233.70 327.98,235.00 332.98,243.19 C335.23,246.89 335.70,255.01 333.94,259.68 C332.63,263.13 328.43,267.70 324.80,269.59 C320.70,271.73 313.12,271.35 307.96,268.75 ZM 91.13 268.83 C85.89,266.24 83.06,260.95 83.02,253.72 C82.98,244.75 86.81,239.44 95.38,236.57 C99.79,235.09 100.76,235.08 105.38,236.44 C111.90,238.35 115.35,241.59 116.96,247.35 C121.51,263.61 106.23,276.31 91.13,268.83 ZM 274.02 190.25 C265.85,181.83 263.93,175.42 263.32,154.50 C263.06,145.70 262.43,137.18 261.91,135.56 C261.78,135.15 261.68,134.77 261.61,134.41 C262.27,135.33 263.71,136.00 265.58,136.00 C268.06,136.00 268.80,136.37 268.40,137.41 C268.08,138.24 268.60,139.02 269.68,139.30 C273.05,140.17 275.59,140.01 278.29,138.75 L 280.98 137.50 L 280.99 108.75 C281.00,93.83 280.66,81.47 280.22,80.12 C280.33,80.08 280.41,80.08 280.45,80.11 C281.41,81.08 281.52,196.00 280.55,196.00 C280.03,196.00 277.09,193.41 274.02,190.25 ZM 287.25 138.98 C287.19,130.02 287.19,122.55 287.24,116.65 C287.67,128.33 288.86,130.61 293.85,131.20 C298.36,131.73 301.39,130.85 304.25,128.19 C306.80,125.81 307.00,125.06 307.00,117.68 C307.00,113.28 306.98,111.30 306.34,109.82 C305.84,108.67 304.97,107.82 303.44,106.38 C304.97,107.82 305.84,108.66 306.34,109.82 C306.99,111.34 307.01,113.41 307.02,118.12 C307.03,122.73 307.46,129.40 307.97,132.95 C308.50,136.60 308.53,139.86 308.04,140.45 C307.56,141.03 307.02,146.90 306.84,153.50 C306.54,164.04 306.23,165.89 304.24,168.66 C301.91,171.94 295.72,175.39 290.50,176.31 L 287.50 176.85 ZM 96.24 138.37 C96.33,119.66 96.35,106.60 96.52,97.64 C96.50,101.53 96.50,106.28 96.50,112.11 C96.50,137.41 96.77,144.02 97.87,145.35 C98.78,146.44 100.79,147.00 103.82,147.00 C109.59,147.00 114.00,143.33 114.00,138.51 C114.00,136.80 114.35,134.97 114.79,134.45 C114.88,134.34 114.96,133.90 115.01,133.19 C115.02,147.19 114.69,161.46 114.02,165.50 C111.81,178.83 106.13,189.84 99.24,194.16 L 95.98 196.21 ZM 53.50 269.58 C51.85,268.85 49.22,266.89 47.67,265.23 C44.08,261.41 44.36,258.03 48.38,256.70 C50.94,255.85 51.52,256.09 53.68,258.85 C56.90,262.96 62.66,264.75 66.62,262.86 C68.91,261.77 69.56,260.73 69.81,257.80 C70.07,254.62 69.73,253.91 67.31,252.68 C65.76,251.89 63.09,250.94 61.36,250.56 C59.63,250.19 56.17,248.59 53.67,247.00 C47.33,242.98 45.81,238.09 48.91,231.70 C49.47,230.53 49.99,229.61 50.57,228.84 C50.53,228.93 50.50,229.01 50.47,229.10 C50.14,230.13 50.18,233.00 50.55,235.49 C50.92,237.97 51.66,240.00 52.19,240.00 C52.73,240.00 52.89,238.76 52.54,237.20 C51.99,234.66 52.34,234.18 56.32,232.20 C61.80,229.46 64.35,229.44 68.61,232.07 C72.38,234.40 74.00,233.96 74.00,230.62 C74.00,227.39 69.86,223.93 65.28,223.31 C63.13,223.02 60.06,223.60 57.27,224.59 C59.69,223.68 62.38,223.01 63.69,223.02 C69.55,223.07 78.00,228.69 78.00,232.54 C78.00,233.53 71.07,237.47 70.51,236.79 C70.38,236.63 69.74,235.49 69.10,234.25 C68.19,232.50 67.06,232.00 64.05,232.00 C58.19,232.00 57.00,232.77 57.00,236.57 C57.00,240.37 57.97,241.09 65.50,242.93 C72.97,244.75 76.48,247.31 77.86,251.94 C79.92,258.80 77.07,265.90 71.02,268.99 C66.43,271.33 58.06,271.62 53.50,269.58 ZM 159.70 266.25 C160.14,264.19 160.37,256.98 160.21,250.23 C159.93,238.32 159.99,237.94 162.16,237.14 C163.43,236.67 165.81,236.74 167.69,237.32 C170.03,238.04 171.72,237.99 173.54,237.16 C176.64,235.75 181.00,235.67 184.39,236.96 C188.91,238.68 190.00,242.57 190.00,256.95 L 190.00 270.00 L 182.00 270.00 L 182.00 258.72 C182.00,245.51 180.97,243.00 175.52,243.00 C173.07,243.00 171.58,243.72 170.07,245.63 C168.26,247.93 168.00,249.66 168.00,259.13 L 168.00 270.00 L 158.91 270.00 ZM 129.50 270.05 C128.40,269.60 126.60,268.24 125.50,267.01 C123.70,265.01 123.50,263.38 123.50,250.65 L 123.50 236.50 L 126.75 236.19 L 130.00 235.87 L 130.00 246.92 C130.00,257.61 130.09,258.07 132.80,261.11 C135.23,263.83 136.04,264.15 138.82,263.54 C143.79,262.45 145.18,258.74 144.88,247.35 C144.60,237.00 145.06,236.04 150.25,236.02 L 153.00 236.00 L 153.00 270.00 L 149.00 270.00 C146.13,270.00 145.00,269.58 145.00,268.51 C145.00,267.30 144.40,267.39 141.75,269.01 C138.41,271.05 133.04,271.50 129.50,270.05 ZM 330.67 163.10 C330.30,159.58 330.00,154.36 330.00,151.50 C330.00,148.64 329.51,144.88 328.90,143.15 C327.93,140.36 327.37,140.00 323.97,140.00 C322.77,140.00 321.93,139.96 321.25,140.27 C319.57,141.04 318.87,143.95 315.99,154.92 C314.41,160.95 313.04,158.54 313.02,149.68 C313.01,145.94 312.53,142.00 311.96,140.93 C311.25,139.60 311.25,138.39 311.98,137.04 C312.56,135.96 313.36,130.48 313.76,124.87 C314.18,119.14 314.97,114.51 315.57,114.31 C316.23,114.09 317.35,118.33 318.44,125.21 C319.44,131.41 320.46,137.04 320.73,137.74 C321.00,138.43 322.73,139.00 324.57,139.00 C328.89,139.00 329.98,136.97 330.06,128.82 C330.09,125.34 330.46,120.70 330.87,118.50 C331.58,114.77 331.68,115.04 332.43,122.50 C332.87,126.90 333.22,133.65 333.21,137.50 C333.20,142.93 333.42,144.02 334.20,142.36 C335.89,138.77 339.34,138.00 353.30,138.09 C369.96,138.19 366.34,139.96 348.80,140.28 L 337.10 140.50 L 334.96 152.50 C331.86,169.81 331.47,170.77 330.67,163.10 ZM 247.04 252.75 C247.10,243.26 246.84,234.71 246.47,233.75 C245.92,232.34 244.56,232.00 239.39,232.00 L 233.00 232.00 L 233.00 228.50 C233.00,225.57 233.36,224.98 235.25,224.90 C235.31,224.89 235.37,224.89 235.43,224.89 C234.49,225.30 234.00,226.39 234.00,228.07 C234.00,230.87 234.08,230.91 240.75,231.24 C247.79,231.59 261.59,231.11 263.75,230.45 C264.44,230.24 265.00,228.98 265.00,227.66 C265.00,225.27 264.97,225.26 251.25,224.79 C249.61,224.74 248.00,224.69 246.47,224.66 C256.03,224.59 266.62,224.77 267.17,225.10 C267.71,225.44 268.00,227.24 267.82,229.10 C267.50,232.49 267.48,232.50 261.85,232.80 C257.01,233.05 256.13,233.41 255.62,235.30 C255.29,236.51 255.02,244.81 255.01,253.75 L 255.00 270.00 L 246.93 270.00 ZM 287.00 247.54 C287.00,225.81 287.07,225.03 289.08,223.96 C293.81,221.43 294.00,222.32 294.00,246.97 L 294.00 270.00 L 287.00 270.00 ZM 104.39 263.04 C108.99,261.29 111.40,253.60 108.88,248.68 C105.82,242.69 97.88,241.03 93.45,245.45 C88.88,250.02 90.73,259.15 96.89,262.50 C100.04,264.21 101.11,264.29 104.39,263.04 ZM 220.82 258.43 C223.30,251.05 219.06,242.97 212.75,243.03 C207.27,243.09 204.00,247.01 204.00,253.53 C204.00,256.33 204.72,257.87 207.04,260.03 C212.60,265.23 218.78,264.52 220.82,258.43 ZM 324.75 260.41 C327.93,256.84 327.79,251.09 324.41,247.08 C322.24,244.50 321.11,244.00 317.41,244.00 C311.34,244.00 309.00,246.45 309.00,252.81 C309.00,256.78 309.49,258.08 311.75,260.19 C313.26,261.60 315.17,263.01 316.00,263.32 C318.59,264.29 322.41,263.02 324.75,260.41 ZM 271.53 253.89 C271.56,239.22 271.73,237.67 273.47,236.40 C274.52,235.63 276.20,235.00 277.19,235.00 C278.87,235.00 279.00,236.28 279.00,252.50 L 279.00 270.00 L 271.50 270.00 ZM 44.78 150.82 C45.50,146.94 46.23,142.27 46.94,136.87 C48.15,127.67 47.31,116.33 45.36,115.58 C44.79,115.37 44.44,115.62 44.24,116.63 C44.59,111.18 45.51,107.95 46.32,110.00 C46.65,110.82 47.13,116.90 47.39,123.50 C47.65,130.10 48.18,136.33 48.58,137.35 C49.00,138.45 48.79,139.51 48.06,139.96 C47.43,140.35 46.00,145.11 44.78,150.82 ZM 271.67 230.33 C270.88,229.55 270.74,227.93 271.06,226.39 C271.12,227.24 271.50,228.10 272.20,228.80 C275.42,232.02 279.26,228.23 277.02,224.04 C276.52,223.10 276.18,222.53 275.79,222.27 C279.24,222.40 281.45,226.41 278.43,229.43 C276.83,231.02 272.88,231.55 271.67,230.33 ZM 39.19 162.00 C39.17,161.92 39.16,161.85 39.15,161.77 C40.23,166.27 41.93,163.84 43.77,155.75 C41.93,164.76 41.12,168.52 40.53,168.48 C40.07,168.45 39.75,166.05 39.19,162.00 ZM 149.29 61.30 C157.18,59.91 165.55,61.60 172.79,66.44 C167.30,62.94 160.79,61.00 153.90,61.00 C152.30,61.00 150.77,61.10 149.29,61.30 ZM 98.49 80.15 C98.61,80.05 98.75,79.98 98.89,79.94 C99.99,79.68 101.58,81.43 103.90,83.53 C105.85,85.29 107.73,87.76 109.36,90.60 C105.90,85.09 100.81,79.95 98.49,80.15 ZM 268.62 92.63 C270.29,89.71 272.38,87.08 274.93,84.56 C274.97,84.52 275.01,84.49 275.05,84.45 C272.78,86.97 270.28,90.11 268.62,92.63 ZM 113.43 100.25 C113.64,100.99 113.83,101.73 113.99,102.47 C114.31,103.87 114.55,107.61 114.72,112.61 C114.42,106.57 114.08,103.09 113.43,100.25 ZM 225.16 61.17 C221.48,60.97 218.12,61.27 214.98,62.11 C218.15,61.04 220.43,60.91 225.16,61.17 ZM 196.77 75.26 C198.42,73.09 200.37,71.02 202.52,69.17 C201.52,70.08 200.53,71.06 199.54,72.13 C198.50,73.25 197.58,74.27 196.77,75.26 ZM 287.90 100.71 C287.93,100.59 287.97,100.52 288.01,100.49 C288.82,99.99 290.88,100.30 293.30,101.06 C290.80,100.32 288.68,100.09 287.90,100.71 ZM 119.70 134.25 C119.26,132.98 119.67,132.65 120.91,131.78 C121.33,131.48 121.65,131.16 121.91,130.53 C121.66,131.15 121.34,131.47 120.94,131.76 C120.93,131.76 120.92,131.77 120.91,131.78 C119.75,132.59 119.40,133.14 119.70,134.25 ZM 263.00 120.98 C263.00,115.29 263.32,110.41 264.04,106.13 C263.34,110.43 263.00,115.33 263.00,120.98 ZM 38.08 147.64 C38.27,145.26 38.86,143.95 39.87,143.31 C38.88,143.93 38.29,145.29 38.08,147.64 ZM 256.04 131.43 C255.89,131.24 255.74,130.24 255.60,128.61 C255.74,130.02 255.88,130.97 256.04,131.43 ZM 43.69 128.15 C43.43,131.13 43.04,133.96 42.55,136.36 C43.02,134.00 43.41,131.19 43.69,128.15 ZM 254.83 108.20 C254.82,107.47 254.81,106.74 254.80,106.00 C254.60,89.61 254.41,83.79 253.60,80.43 C254.41,83.78 254.60,89.60 254.80,105.96 C254.81,106.72 254.82,107.47 254.83,108.20 ZM 273.10 222.95 C273.11,222.94 273.12,222.94 273.13,222.93 C273.16,222.92 273.18,222.90 273.21,222.89 C273.18,222.91 273.14,222.93 273.10,222.95 Z" fill="rgba(225,110,78,1)"/>
<path d="M 121.15 137.08 C120.87,136.83 120.56,136.33 120.21,135.56 C119.25,133.46 119.37,132.86 120.94,131.76 C122.65,130.55 122.84,128.51 123.19,106.97 C123.63,80.28 123.86,79.27 131.56,71.04 C138.07,64.08 144.93,61.00 153.90,61.00 C166.36,61.00 177.58,67.33 183.76,77.83 L 186.50 82.50 L 187.11 141.73 L 183.07 142.37 C180.85,142.73 176.92,142.54 174.33,141.96 C171.73,141.38 167.25,141.20 164.37,141.56 C160.51,142.04 158.29,141.79 155.91,140.61 C151.55,138.43 151.00,138.56 150.99,141.75 C150.99,144.41 150.11,148.20 149.18,150.34 C150.21,147.31 151.09,140.35 151.96,129.00 C153.16,113.46 152.63,106.04 150.26,105.25 C149.61,105.04 148.84,105.90 148.56,107.18 C144.78,124.18 141.91,133.00 140.16,133.00 C139.64,133.00 138.58,130.41 137.81,127.26 C135.98,119.76 134.20,119.49 131.00,126.23 C128.65,131.19 128.28,131.50 124.80,131.50 C119.97,131.50 118.74,132.79 120.53,136.00 C120.78,136.44 120.98,136.80 121.15,137.08 ZM 96.67 134.40 C96.54,129.40 96.50,122.26 96.50,112.11 C96.50,82.21 96.60,80.51 98.35,80.17 C101.25,79.61 109.15,88.53 111.92,95.51 C113.93,100.58 114.39,103.96 114.93,117.50 C115.18,123.78 115.22,129.45 115.07,132.39 C114.30,132.05 112.97,131.77 111.02,131.50 C107.36,131.00 104.78,131.29 101.27,132.59 C98.76,133.52 97.37,134.02 96.67,134.40 ZM 261.28 132.74 C261.38,132.37 261.61,131.99 261.97,131.63 C262.54,131.06 263.00,126.27 263.00,120.98 C263.00,109.97 264.29,101.83 267.04,95.40 C268.87,91.13 278.34,80.00 280.15,80.00 C280.62,80.00 281.00,92.94 280.99,108.75 L 280.98 135.90 C280.85,134.87 279.76,133.41 278.44,132.56 C276.29,131.15 275.32,131.07 272.33,132.06 C270.37,132.70 267.02,133.00 264.88,132.71 C262.82,132.43 261.69,132.40 261.28,132.74 ZM 226.50 136.91 C225.98,133.89 225.19,131.59 225.07,133.82 C224.89,137.20 218.84,139.44 216.42,137.02 C215.13,135.73 197.52,138.32 195.36,140.12 C194.01,141.24 193.48,141.08 191.82,139.03 C189.99,136.76 189.90,135.22 190.24,112.56 C190.34,105.62 190.46,100.20 190.69,95.83 C190.87,96.22 191.11,96.57 191.41,96.90 C192.31,97.90 195.48,104.67 198.45,111.96 C204.35,126.46 206.85,130.00 211.15,130.00 C213.40,130.00 214.35,129.24 215.91,126.18 C221.18,115.84 224.87,119.60 226.50,136.91 ZM 79.98 173.25 C71.53,168.93 70.77,167.29 70.09,152.00 C69.93,148.49 69.86,145.11 69.87,142.46 C69.88,142.58 69.90,142.71 69.92,142.83 C70.27,145.44 70.52,145.85 70.78,144.25 C71.00,142.89 72.07,141.77 73.50,141.41 C76.44,140.67 86.89,141.34 89.25,142.42 C90.30,142.89 90.72,142.52 90.89,136.99 C90.77,145.83 90.57,154.72 90.34,160.25 C89.91,170.65 89.78,175.04 87.92,175.96 C86.53,176.65 84.17,175.39 79.98,173.25 ZM 293.85 131.20 C288.54,130.57 287.53,128.02 287.17,114.28 C286.97,106.93 287.24,101.36 287.82,100.78 C289.51,99.09 299.51,102.67 303.44,106.38 C306.94,109.68 307.00,109.87 307.00,117.68 C307.00,125.06 306.80,125.81 304.25,128.19 C301.39,130.85 298.36,131.73 293.85,131.20 ZM 38.65 158.75 C37.48,149.04 37.83,144.59 39.87,143.31 C41.98,141.99 44.00,131.09 44.00,120.99 C44.00,116.40 44.31,115.18 45.36,115.58 C47.31,116.33 48.15,127.67 46.94,136.87 C43.73,161.35 40.11,170.89 38.65,158.75 ZM 240.75 231.24 C234.08,230.91 234.00,230.87 234.00,228.07 C234.00,226.21 234.60,225.08 235.75,224.78 C236.71,224.53 243.69,224.53 251.25,224.79 C264.97,225.26 265.00,225.27 265.00,227.66 C265.00,228.98 264.44,230.24 263.75,230.45 C261.59,231.11 247.79,231.59 240.75,231.24 ZM 97.87 145.35 C97.27,144.63 96.92,142.33 96.72,136.28 C97.75,137.40 99.74,137.09 103.51,135.30 C106.47,133.88 107.61,133.79 110.21,134.77 C112.37,135.59 113.57,135.65 114.51,134.98 C114.21,135.79 114.00,137.18 114.00,138.51 C114.00,143.33 109.59,147.00 103.82,147.00 C100.79,147.00 98.78,146.44 97.87,145.35 ZM 50.55 235.49 C50.18,233.00 50.14,230.13 50.47,229.10 C51.37,226.25 60.53,222.67 65.28,223.31 C69.86,223.93 74.00,227.39 74.00,230.62 C74.00,233.96 72.38,234.40 68.61,232.07 C64.35,229.44 61.80,229.46 56.32,232.20 C52.34,234.18 51.99,234.66 52.54,237.20 C52.89,238.76 52.73,240.00 52.19,240.00 C51.66,240.00 50.92,237.97 50.55,235.49 ZM 252.39 135.16 C251.51,135.16 251.00,135.38 251.00,135.80 C251.00,136.38 250.30,137.55 249.45,138.40 C248.06,139.80 247.50,139.79 243.70,138.30 C241.39,137.39 238.55,136.04 237.39,135.30 C234.48,133.45 233.52,134.84 231.48,143.78 C231.47,143.83 231.46,143.87 231.45,143.92 C231.73,142.47 231.92,141.03 231.95,140.00 C232.07,135.88 233.59,128.65 235.17,124.70 C236.88,120.41 239.81,121.53 243.64,127.93 C247.07,133.65 247.84,134.41 252.39,135.16 ZM 139.87 139.26 C138.67,138.95 137.50,139.31 136.64,140.48 C135.65,141.83 134.62,142.01 131.45,141.38 C129.28,140.95 127.01,140.69 126.41,140.81 C125.82,140.92 124.77,139.80 124.09,138.31 C123.25,136.46 122.62,135.99 122.10,136.83 C122.05,136.91 122.00,136.99 121.95,137.05 C121.96,136.86 121.96,136.64 121.96,136.39 C121.99,134.60 122.79,134.19 127.22,133.66 C132.04,133.09 132.68,133.27 135.47,135.96 C136.73,137.17 138.47,138.46 139.87,139.26 ZM 223.75 234.58 C221.59,232.98 221.40,226.75 223.45,225.04 C224.28,224.35 225.84,224.13 227.07,224.52 C228.95,225.12 229.16,225.74 228.69,229.24 C228.00,234.44 226.19,236.39 223.75,234.58 ZM 269.68 139.30 C268.60,139.02 268.08,138.24 268.40,137.41 C268.80,136.37 268.06,136.00 265.58,136.00 C264.18,136.00 263.02,135.62 262.25,135.05 C263.06,135.44 264.66,135.32 267.63,134.71 C272.23,133.76 273.11,133.88 276.13,135.81 C278.30,137.20 279.53,137.87 280.21,137.86 L 278.29 138.75 C275.59,140.01 273.05,140.17 269.68,139.30 ZM 272.20 228.80 C270.40,227.00 270.75,224.20 272.93,223.04 C275.55,221.64 275.76,221.69 277.02,224.04 C279.26,228.23 275.42,232.02 272.20,228.80 ZM 44.72 126.50 L 45.41 130.50 L 46.09 127.50 C47.35,121.89 47.11,118.00 45.50,118.00 C43.84,118.00 43.63,120.26 44.72,126.50 ZM 227.98 148.43 C227.47,147.10 227.02,144.09 226.94,141.58 C227.32,144.89 227.86,147.93 228.29,149.00 C229.28,151.46 229.31,151.43 230.57,147.50 C230.57,147.49 230.58,147.47 230.58,147.46 C230.02,149.57 229.56,151.00 229.40,151.00 C229.15,151.00 228.51,149.85 227.98,148.43 ZM 202.44 69.24 C206.39,65.65 210.46,63.32 214.98,62.11 C213.93,62.46 212.78,62.92 211.42,63.50 C208.32,64.81 205.22,66.84 202.44,69.24 ZM 191.69 86.11 C192.59,81.40 194.09,78.54 196.70,75.35 C194.77,77.91 193.31,80.58 192.56,83.10 C192.24,84.19 191.95,85.19 191.69,86.11 ZM 144.52 144.69 C143.85,142.52 142.66,140.87 141.35,139.96 C142.91,140.63 143.93,141.92 144.29,143.67 C144.35,143.98 144.43,144.33 144.52,144.69 ZM 257.00 134.16 L 257.00 134.18 C257.00,135.42 256.57,135.76 254.86,135.50 C256.59,135.64 257.00,135.29 257.00,134.16 ZM 146.37 150.52 C146.30,150.33 146.20,150.05 146.08,149.70 C146.41,150.52 146.73,151.13 147.04,151.54 C146.76,151.27 146.52,150.91 146.37,150.52 ZM 280.98 136.65 L 280.98 137.50 L 280.72 137.62 C280.88,137.42 280.95,137.10 280.98,136.65 ZM 261.69 134.51 C261.53,134.31 261.41,134.10 261.32,133.88 C261.42,134.07 261.54,134.28 261.69,134.51 ZM 70.19 137.19 C70.17,137.24 70.16,137.28 70.14,137.32 C70.16,137.27 70.17,137.24 70.18,137.20 C70.18,137.20 70.18,137.19 70.19,137.19 Z" fill="rgba(239,153,62,1)"/>
<path d="M 58.16 149.83 C57.20,143.07 57.24,141.38 58.39,140.08 C59.15,139.21 60.31,134.45 60.96,129.50 C62.38,118.82 62.83,117.00 64.07,117.00 C64.58,117.00 65.00,121.41 65.00,126.80 C65.00,133.07 65.43,137.03 66.20,137.80 C67.12,138.72 67.03,139.27 65.79,140.25 C64.90,140.94 63.42,145.16 62.45,149.75 C61.49,154.29 60.40,158.00 60.01,158.00 C59.63,158.00 58.79,154.32 58.16,149.83 ZM 145.90 149.25 C145.33,147.74 144.60,145.23 144.29,143.67 C143.92,141.83 142.81,140.50 141.11,139.86 C139.67,139.32 137.14,137.56 135.47,135.96 C132.68,133.27 132.04,133.09 127.22,133.66 C122.79,134.19 121.99,134.60 121.96,136.39 C121.93,138.36 121.84,138.33 120.53,136.00 C118.74,132.79 119.97,131.50 124.80,131.50 C128.28,131.50 128.65,131.19 131.00,126.23 C134.20,119.49 135.98,119.76 137.81,127.26 C138.58,130.41 139.64,133.00 140.16,133.00 C141.91,133.00 144.78,124.18 148.56,107.18 C148.84,105.90 149.61,105.04 150.26,105.25 C152.63,106.04 153.16,113.46 151.96,129.00 C150.30,150.65 148.60,156.33 145.90,149.25 ZM 228.29 149.00 C227.74,147.62 227.01,143.01 226.66,138.74 C225.12,119.87 221.36,115.49 215.91,126.18 C214.35,129.24 213.40,130.00 211.15,130.00 C206.85,130.00 204.35,126.46 198.45,111.96 C195.48,104.67 192.31,97.90 191.41,96.90 C189.62,94.92 189.84,92.26 192.56,83.10 C194.76,75.70 203.09,67.04 211.42,63.50 C216.92,61.16 218.87,60.83 225.16,61.17 C237.44,61.83 247.83,68.06 252.56,77.60 C254.29,81.08 254.53,84.15 254.80,106.00 C254.97,119.68 255.52,130.92 256.05,131.45 C256.57,131.97 257.00,133.18 257.00,134.14 C257.00,135.58 256.36,135.78 253.25,135.30 C247.92,134.49 247.28,134.00 243.64,127.93 C239.81,121.53 236.88,120.41 235.17,124.70 C233.59,128.65 232.07,135.88 231.95,140.00 C231.89,141.93 231.27,145.30 230.57,147.50 C229.31,151.43 229.28,151.46 228.29,149.00 ZM 69.92 142.83 C69.64,140.81 69.74,138.33 70.14,137.33 C70.54,136.32 70.89,130.76 70.93,124.96 C71.04,108.76 74.69,103.33 86.75,101.42 L 91.00 100.74 L 91.00 121.98 C91.00,141.84 90.89,143.16 89.25,142.42 C86.89,141.34 76.44,140.67 73.50,141.41 C72.07,141.77 71.00,142.89 70.78,144.25 C70.52,145.85 70.27,145.44 69.92,142.83 ZM 26.88 143.00 C26.63,139.05 26.67,138.46 27.44,135.75 C27.87,134.24 28.57,133.00 29.00,133.00 C30.27,133.00 30.74,141.34 29.58,143.25 C28.17,145.57 27.03,145.47 26.88,143.00 ZM 276.13 135.81 C273.11,133.88 272.23,133.76 267.63,134.71 C263.87,135.49 262.30,135.46 261.77,134.63 C260.41,132.54 260.98,132.19 264.88,132.71 C267.02,133.00 270.37,132.70 272.33,132.06 C275.32,131.07 276.29,131.15 278.44,132.56 C279.85,133.48 281.00,135.08 281.00,136.12 C281.00,138.51 280.28,138.47 276.13,135.81 ZM 96.46 135.93 C95.65,134.62 95.48,134.73 101.27,132.59 C104.78,131.29 107.36,131.00 111.02,131.50 C116.15,132.21 116.97,132.95 114.67,134.86 C113.70,135.66 112.50,135.64 110.21,134.77 C107.61,133.79 106.47,133.88 103.51,135.30 C99.38,137.26 97.39,137.44 96.46,135.93 ZM 44.72 126.50 C43.63,120.26 43.84,118.00 45.50,118.00 C47.11,118.00 47.35,121.89 46.09,127.50 L 45.41 130.50 L 44.72 126.50 ZM 82.00 93.08 C82.00,89.05 86.22,73.63 89.37,66.17 C94.22,54.67 101.17,44.62 111.01,34.88 C134.11,12.03 158.10,2.00 189.70,2.00 C216.25,2.00 236.71,9.17 257.97,25.91 C277.18,41.05 288.86,58.04 295.14,79.99 C296.16,83.57 297.00,88.44 297.00,90.81 C297.00,94.93 296.87,95.12 294.26,94.82 C291.77,94.53 291.45,94.01 290.76,89.23 C289.77,82.31 285.11,70.37 279.64,60.80 C268.20,40.74 251.90,26.28 232.00,18.54 C227.88,16.94 224.01,15.26 223.41,14.82 C222.81,14.38 217.86,13.00 212.41,11.76 C204.46,9.95 199.53,9.50 187.50,9.52 C178.61,9.53 170.26,10.07 167.00,10.85 C152.07,14.42 139.83,19.66 128.63,27.26 C120.76,32.60 108.02,45.69 102.14,54.49 C96.48,62.94 90.66,76.36 89.06,84.61 C86.99,95.32 87.13,95.00 84.48,95.00 C82.70,95.00 82.00,94.46 82.00,93.08 Z" fill="rgba(241,222,199,1)"/>
</g>
</svg>