<?xml version="1.0" encoding="UTF-8"?>
<svg version="1.1" xmlns="http://www.w3.org/2000/svg" width="512" height="512">
<path d="M0 0 C15.66858494 -0.72405661 31.52340927 5.16729552 43.36328125 15.33984375 C46.90037093 18.80016855 50.1939757 22.47000568 53.42578125 26.21484375 C53.87100663 26.72095814 54.31623201 27.22707253 54.77494907 27.74852371 C57.35630514 30.78781268 59.37928684 33.63994006 61.04393005 37.27215576 C63.53711976 42.23734319 66.25210694 46.19577306 71.05078125 49.15234375 C81.01015805 51.96048413 91.93816138 51.10679502 102.19462514 50.84484959 C106.33190049 50.75737537 110.46899795 50.76490318 114.60704041 50.76287842 C122.43957219 50.74556831 130.26898595 50.65047166 138.10043854 50.52386355 C149.57543061 50.34112336 161.05124618 50.25967344 172.52746487 50.19778061 C173.37274229 50.19321106 174.21801971 50.18864151 175.08891159 50.1839335 C176.77557585 50.17491761 178.46224153 50.16616478 180.14890856 50.15768218 C185.05887038 50.13014076 189.96746754 50.07447882 194.8768369 49.99380636 C197.93976754 49.94626992 201.00274046 49.91473096 204.0659008 49.88620567 C205.47561047 49.86930869 206.885258 49.84536622 208.29470825 49.81347847 C222.65587491 49.49388739 234.1151685 53.3860397 245.05078125 62.890625 C252.50499111 70.66097323 258.16524655 81.86710541 258.18500233 92.68945408 C258.18946017 93.82273815 258.19391801 94.95602222 258.19851094 96.12364823 C258.1982344 97.9917535 258.1982344 97.9917535 258.19795227 99.89759827 C258.20125224 101.23377207 258.20497809 102.56994488 258.20909375 103.90611643 C258.21910683 107.58135529 258.22282943 111.25657781 258.22548306 114.93182838 C258.2293882 118.89452105 258.23896644 122.85720082 258.24769592 126.81988525 C258.2674551 136.3919518 258.27752616 145.96401941 258.28642371 155.53610125 C258.29080778 160.04496193 258.29617431 164.55382144 258.30141258 169.0626812 C258.31842483 184.05350151 258.33291845 199.04432109 258.34016132 214.03514957 C258.34207119 217.92504439 258.34399152 221.81493919 258.34594727 225.70483398 C258.34643101 226.67163636 258.34691475 227.63843874 258.34741315 228.63453817 C258.35571139 244.29204959 258.38104485 259.94948457 258.41352794 275.60696263 C258.44661351 291.68609036 258.46461147 307.76517927 258.46780556 323.84434122 C258.46996935 332.87057545 258.47869863 341.89669822 258.50426674 350.92289925 C258.52599424 358.61099111 258.53401411 366.29894445 258.52429996 373.98706353 C258.51976109 377.90745326 258.52161712 381.82755727 258.5410614 385.74790764 C258.55873604 389.34262432 258.55766109 392.93684777 258.54216411 396.53157001 C258.53867885 398.4360142 258.55478231 400.34046381 258.57176858 402.24483544 C258.47849111 414.76248241 254.36647583 426.30123561 245.79296875 435.6015625 C234.81978457 446.00716818 222.59197327 450.27274667 207.56437969 450.2809782 C206.47788749 450.28360776 206.47788749 450.28360776 205.36944595 450.28629044 C202.94750579 450.29093444 200.52562609 450.28848907 198.10368347 450.28605652 C196.34760356 450.28792529 194.59152406 450.29022626 192.83544523 450.29292184 C188.01349162 450.29903797 183.19155535 450.29890647 178.36959875 450.29772747 C173.16770687 450.29752341 167.96582056 450.30304264 162.76393127 450.30778503 C152.57399762 450.31609102 142.38406976 450.31883985 132.19413301 450.31939741 C123.91158479 450.31987258 115.62903848 450.32192735 107.34649086 450.32509804 C83.86471646 450.33390431 60.38294664 450.33851743 36.90117057 450.33776756 C35.63529552 450.33772761 34.36942046 450.33768765 33.06518555 450.33764648 C31.16405513 450.33758516 31.16405513 450.33758516 29.22451804 450.3375226 C8.68108976 450.33711609 -11.86232019 450.34668694 -32.40574316 450.36078485 C-53.49882583 450.37514578 -74.59189956 450.3820552 -95.68498725 450.38119107 C-107.52747 450.38085902 -119.36993353 450.38360998 -131.21241188 450.39436913 C-141.29465926 450.40347037 -151.37687871 450.40565244 -161.45912842 450.3988597 C-166.60258725 450.39559267 -171.7459925 450.39554449 -176.88944626 450.40421295 C-181.60028299 450.41207063 -186.31102357 450.41065396 -191.02185794 450.40192882 C-192.72370004 450.40039223 -194.4255493 450.40221597 -196.12738297 450.4077889 C-213.49131003 450.46087218 -227.85608005 448.54012818 -240.94921875 436.15234375 C-248.58086528 428.04557526 -254.05939975 417.88896523 -254.08623314 406.62082005 C-254.09384495 404.92274404 -254.09384495 404.92274404 -254.10161054 403.19036347 C-254.1021083 401.94632419 -254.10260606 400.70228492 -254.1031189 399.42054749 C-254.10713488 398.08579885 -254.11157333 396.75105144 -254.11639845 395.41630548 C-254.12835504 391.74493023 -254.1340103 388.07356811 -254.13857961 384.40217721 C-254.14453931 380.4435346 -254.15614838 376.48490767 -254.16687012 372.52627563 C-254.19138784 362.9631008 -254.20602147 353.39992078 -254.21893018 343.83672419 C-254.22264293 341.13469108 -254.22661611 338.43265847 -254.23068285 335.73062587 C-254.255923 318.94480988 -254.27797219 302.15899305 -254.290411 285.37316227 C-254.29334061 281.48534708 -254.29630228 277.59753192 -254.29931641 273.7097168 C-254.30006246 272.74343904 -254.30080851 271.77716128 -254.30157717 270.78160238 C-254.31422313 255.13835605 -254.34743612 239.49522359 -254.38911824 223.85203046 C-254.43158006 207.78419398 -254.45511104 191.71641571 -254.46033156 175.64852327 C-254.46374113 166.63002058 -254.47544249 157.61169574 -254.5084343 148.59324837 C-254.53649456 140.9103188 -254.54740806 133.22760354 -254.53623883 125.54462672 C-254.53106717 121.62797673 -254.53384079 117.71177509 -254.55870438 113.79519081 C-254.58132644 110.20151483 -254.58035835 106.60860587 -254.5615005 103.01491528 C-254.5574119 101.11591104 -254.57775037 99.21690119 -254.59928739 97.31801468 C-254.47456501 83.68577333 -249.4173996 71.90620247 -239.94921875 62.15234375 C-228.02881684 52.22947296 -216.55906668 49.67947166 -201.27905273 49.89453125 C-199.82422704 49.9035408 -198.36939142 49.91105161 -196.91455078 49.91719055 C-193.80052809 49.93248391 -190.68672877 49.95625134 -187.57281303 49.98617554 C-182.64220279 50.03145911 -177.71181618 50.04495618 -172.78102112 50.05200195 C-158.76650002 50.07543966 -144.75252321 50.11628841 -130.73852539 50.24462891 C-122.98390361 50.31538733 -115.23016935 50.346838 -107.47522217 50.33433914 C-103.37900241 50.32943088 -99.28509703 50.34473382 -95.18932915 50.40887451 C-91.33793467 50.46908825 -87.48978668 50.47780977 -83.63806915 50.44804955 C-82.2307455 50.44625636 -80.82324662 50.46309136 -79.41642189 50.50060463 C-73.45716343 50.65085893 -68.81362403 50.75616633 -64.15789986 46.75115967 C-61.8687534 43.98046586 -59.88594594 41.17636539 -57.94921875 38.15234375 C-56.96290633 36.86726136 -55.96550239 35.59038793 -54.9453125 34.33203125 C-54.51951904 33.78184326 -54.09372559 33.23165527 -53.6550293 32.66479492 C-51.85501138 30.34088344 -50.02909211 28.0378358 -48.20117188 25.73583984 C-47.11193046 24.35814488 -46.03708901 22.96908883 -44.96484375 21.578125 C-35.29075528 9.73356796 -20.58375079 2.57340507 -5.57421875 0.33984375 C-3.71518098 0.24368662 -1.85586337 0.14504744 0 0 Z " fill="#EB8592" transform="translate(253.94921875,30.84765625)"/>
<path d="M0 0 C1.46943647 0.00084782 2.9388742 0.0003681 4.40830994 -0.00132751 C8.36844873 -0.00218284 12.32831094 0.01536719 16.28838587 0.03639436 C20.43767525 0.055239 24.58697204 0.0569177 28.73629761 0.06047058 C36.58066201 0.06976829 44.42489991 0.09435104 52.26920879 0.12451905 C61.20516572 0.15813415 70.14112892 0.17456689 79.07713342 0.18960536 C97.44716437 0.22090281 115.81707785 0.27361872 134.18701172 0.34057617 C133.24526008 1.77105003 132.3011047 3.19994154 131.35595703 4.62817383 C130.8304425 5.42405914 130.30492798 6.21994446 129.76348877 7.03994751 C127.65915974 10.11089591 125.35791191 12.8862419 122.93701172 15.71557617 C120.52533239 18.54381829 118.24903321 21.24754393 116.18701172 24.34057617 C113.97216797 25.36791992 113.97216797 25.36791992 111.24951172 26.27807617 C109.76644531 26.78661133 109.76644531 26.78661133 108.25341797 27.30541992 C107.24150391 27.64702148 106.22958984 27.98862305 105.18701172 28.34057617 C103.35180689 29.00207356 101.51841398 29.66862282 99.68701172 30.34057617 C92.35367839 33.00724284 85.02034505 35.67390951 77.68701172 38.34057617 C76.77822266 38.67186523 75.86943359 39.0031543 74.93310547 39.34448242 C73.11491142 40.00399805 71.29460896 40.65773226 69.47216797 41.30541992 C63.42726739 43.46493247 57.51431968 45.84296077 51.62060547 48.38745117 C49.18701172 49.34057617 49.18701172 49.34057617 47.18701172 49.34057617 C46.37320964 47.64786784 45.55940755 45.95515951 44.74560547 44.26245117 C41.97683459 40.84832769 38.33446781 38.71534824 34.02391052 37.96307373 C31.6010007 37.81448953 29.2081091 37.78589325 26.78076172 37.80932617 C25.89723022 37.80549927 25.01369873 37.80167236 24.10339355 37.79772949 C22.2443731 37.79502015 20.38531389 37.80231255 18.52636719 37.8190918 C15.69492908 37.84051626 12.86602797 37.81925762 10.03466797 37.79370117 C8.22086033 37.79634462 6.40705427 37.80146996 4.59326172 37.80932617 C3.33515686 37.79718079 3.33515686 37.79718079 2.05163574 37.78479004 C-3.71846506 37.87599044 -7.13906388 38.87915841 -11.81298828 42.34057617 C-16.40600325 47.35520827 -16.40158943 51.87616011 -16.34423828 58.34057617 C-16.34806519 59.29448242 -16.35189209 60.24838867 -16.35583496 61.23120117 C-16.35854864 63.24162862 -16.35122565 65.2520917 -16.33447266 67.26245117 C-16.31305537 70.33096404 -16.33429294 73.39713569 -16.35986328 76.46557617 C-16.35721991 78.42391465 -16.35209474 80.38225167 -16.34423828 82.34057617 C-16.35233521 83.25323242 -16.36043213 84.16588867 -16.36877441 85.10620117 C-16.28757566 90.65158335 -15.64470008 94.03277336 -11.81298828 98.34057617 C-8.29994869 101.03268214 -5.67868232 101.7298026 -1.29345703 101.85229492 C-0.271875 101.88774414 0.74970703 101.92319336 1.80224609 101.9597168 C2.85734375 101.98227539 3.91244141 102.00483398 4.99951172 102.02807617 C6.07394531 102.06223633 7.14837891 102.09639648 8.25537109 102.1315918 C10.89914705 102.2138426 13.54260093 102.28306826 16.18701172 102.34057617 C16.28498047 103.28416992 16.38294922 104.22776367 16.48388672 105.19995117 C18.63923792 123.70624251 26.03151259 136.9917566 36.59326172 152.14526367 C39.60739161 156.4812226 42.57290354 160.84896874 45.53076172 165.22338867 C46.00339447 165.92233749 46.47602722 166.62128632 46.96298218 167.34141541 C48.89756908 170.20343898 50.83139226 173.06597588 52.76397705 175.92935181 C54.13583366 177.96158512 55.50899446 179.99293196 56.88232422 182.02416992 C57.30163208 182.64635406 57.72093994 183.26853821 58.1529541 183.90957642 C60.00042317 186.75973112 60.00042317 186.75973112 62.18701172 189.34057617 C62.35461902 191.45328639 62.45445886 193.57139242 62.52832031 195.68945312 C62.55290817 196.35307358 62.57749603 197.01669403 62.60282898 197.70042419 C62.65608099 199.14795707 62.70725472 200.59556751 62.75663376 202.04323769 C62.83599185 204.34459361 62.92257038 206.64556966 63.01138306 208.94657898 C63.26326406 215.49166774 63.50676112 222.03701075 63.73388672 228.58300781 C63.87327046 232.5852172 64.02523382 236.58679302 64.18477249 240.5882473 C64.2428382 242.1048801 64.29629928 243.62169731 64.34479904 245.13866615 C64.73537119 257.28817046 66.19915268 268.59999121 71.87451172 279.52807617 C72.22336426 280.20733154 72.5722168 280.88658691 72.93164062 281.58642578 C79.97557889 294.82188141 90.87098099 302.10306704 104.18701172 308.34057617 C105.52143979 309.00504886 106.85493908 309.67139405 108.18701172 310.34057617 C108.2088855 312.05772827 108.2088855 312.05772827 108.23120117 313.80957031 C108.28941933 318.07957314 108.36665 322.34906155 108.44946289 326.61865234 C108.48260198 328.46231706 108.51066785 330.30608053 108.53344727 332.14990234 C108.56719684 334.80893825 108.61952138 337.46707804 108.67529297 340.12573242 C108.68487785 341.35115501 108.68487785 341.35115501 108.69465637 342.60133362 C108.82881674 347.88990044 109.70419281 351.64400681 112.18701172 356.34057617 C119.30147159 363.09931305 128.29371017 361.63250812 137.4909668 361.69067383 C139.40450227 361.70719915 141.31797689 361.73444386 143.23120117 361.77270508 C146.00195062 361.82778004 148.77125561 361.84939591 151.54248047 361.86401367 C152.38860397 361.88668304 153.23472748 361.90935242 154.10649109 361.93270874 C160.25711065 361.91108244 164.54441805 360.46538213 169.18701172 356.34057617 C172.69880554 351.48527161 172.62698382 346.80387992 172.58544922 341.03198242 C172.5883194 340.14703598 172.59118958 339.26208954 172.59414673 338.35032654 C172.59618123 336.48533485 172.59069444 334.62032153 172.578125 332.75537109 C172.56208159 329.91544375 172.57798456 327.07694359 172.59716797 324.23706055 C172.59518505 322.41869806 172.59134038 320.60033645 172.58544922 318.78198242 C172.59455826 317.51917198 172.59455826 317.51917198 172.60385132 316.23085022 C172.54049859 310.86492809 171.61791819 307.13600388 169.18701172 302.34057617 C176.31273775 299.79465809 183.52795722 297.57175198 190.81201172 295.52807617 C191.58649658 295.29709229 192.36098145 295.0661084 193.15893555 294.828125 C203.50872219 292.0048611 212.5942258 294.7473867 222.62451172 297.77807617 C223.69894531 298.09067383 224.77337891 298.40327148 225.88037109 298.7253418 C233.77663711 301.0669931 233.77663711 301.0669931 237.18701172 303.34057617 C236.70095459 304.14382324 236.21489746 304.94707031 235.71411133 305.7746582 C233.83108643 310.17169444 233.73648229 313.67110851 233.75341797 318.39526367 C233.74817612 319.2556424 233.74293427 320.11602112 233.73753357 321.00247192 C233.73113262 322.81617152 233.73242534 324.62991274 233.7409668 326.44360352 C233.7494649 329.20038816 233.72070907 331.95509022 233.68896484 334.71166992 C233.68735215 336.48120056 233.68793166 338.25073482 233.69091797 340.02026367 C233.674067 341.24252151 233.674067 341.24252151 233.65687561 342.48947144 C233.72496552 348.15719797 234.70933405 352.75239842 238.18701172 357.34057617 C242.98107124 361.7259102 248.32834679 361.94396041 254.55810547 361.90698242 C255.43926529 361.913181 256.32042511 361.91937958 257.22828674 361.92576599 C259.08308819 361.93283751 260.93795347 361.92973698 262.79272461 361.91699219 C265.61350604 361.90313026 268.43096311 361.93723023 271.25146484 361.9753418 C273.06201252 361.97629321 274.87256431 361.97443295 276.68310547 361.96948242 C277.9334684 361.98936974 277.9334684 361.98936974 279.20909119 362.00965881 C285.29624756 361.91401442 289.58389041 360.40604587 294.18701172 356.34057617 C297.72963602 351.45271269 297.6557739 346.60665662 297.69873047 340.78588867 C297.71668167 339.88434052 297.73463287 338.98279236 297.75312805 338.05392456 C297.80705322 335.19118849 297.84106947 332.32861746 297.87451172 329.46557617 C297.90770052 327.51763663 297.94219162 325.56971882 297.97802734 323.62182617 C298.06276944 318.86152891 298.1296653 314.10127909 298.18701172 309.34057617 C299.13890381 308.94878174 300.0907959 308.5569873 301.0715332 308.15332031 C302.33802463 307.6236113 303.6043746 307.09356398 304.87060547 306.56323242 C305.49592163 306.3069104 306.12123779 306.05058838 306.76550293 305.78649902 C312.34066303 303.43781455 316.7281273 300.37754464 321.18701172 296.34057617 C322.05326172 295.55682617 322.91951172 294.77307617 323.81201172 293.96557617 C336.40087965 280.05156424 341.45306945 265.35544231 341.88232422 246.66479492 C341.93898758 244.91245293 341.93898758 244.91245293 341.99679565 243.12471008 C342.11410753 239.42608373 342.21377991 235.7272537 342.31201172 232.02807617 C342.38497115 229.55993967 342.45918012 227.09183977 342.53466797 224.6237793 C342.57106384 223.42423615 342.60745972 222.22469299 342.6449585 220.98880005 C342.75490692 217.49168176 342.87535499 213.99503376 342.99658203 210.49829102 C343.12076053 206.88071765 343.199611 203.27501332 343.18212891 199.65551758 C343.32902956 190.14189439 346.14038422 185.49916597 352.18701172 178.34057617 C353.47643043 176.49677916 354.73960646 174.63435555 355.97607422 172.75463867 C356.60078613 171.81491211 357.22549805 170.87518555 357.86914062 169.90698242 C359.20738055 167.88095646 360.54559521 165.85491382 361.88378906 163.82885742 C365.24807219 158.74167001 368.63074335 153.67591307 372.12451172 148.67651367 C382.53202822 133.69792705 388.66044937 120.65932435 390.18701172 102.34057617 C390.8523291 102.33123047 391.51764648 102.32188477 392.203125 102.31225586 C395.2401519 102.25831598 398.2756775 102.17471555 401.31201172 102.09057617 C402.35873047 102.07639648 403.40544922 102.0622168 404.48388672 102.04760742 C410.47076937 101.85814911 414.59730808 101.59301724 419.18701172 97.34057617 C422.93229575 92.68076566 422.63887468 88.1500389 422.62060547 82.43823242 C422.62584732 81.48291122 422.63108917 80.52759003 422.63648987 79.5433197 C422.64290095 77.52693654 422.64158492 75.51051594 422.63305664 73.49414062 C422.62454988 70.41688106 422.65331586 67.34148048 422.68505859 64.2644043 C422.68667089 62.30151423 422.68609252 60.33862088 422.68310547 58.37573242 C422.69995644 57.00204247 422.69995644 57.00204247 422.71714783 55.6006012 C422.65645758 50.00885629 421.92732839 46.77297983 418.18701172 42.34057617 C414.73086752 39.30335854 411.74787316 38.22751239 407.17797852 38.16357422 C405.97609138 38.14432137 405.97609138 38.14432137 404.74992371 38.12467957 C403.88740494 38.11729263 403.02488617 38.1099057 402.13623047 38.10229492 C401.24466751 38.09422318 400.35310455 38.08615143 399.43452454 38.07783508 C397.54743385 38.06400711 395.6603183 38.0532792 393.77319336 38.04541016 C390.89567372 38.02820272 388.01930491 37.9843063 385.14208984 37.94018555 C383.30681182 37.93005762 381.47152404 37.92154183 379.63623047 37.91479492 C378.35156136 37.88853279 378.35156136 37.88853279 377.04093933 37.86174011 C371.58865601 37.88141538 368.51505374 38.71835957 364.18701172 42.34057617 C362.18524957 44.61284672 360.5386812 46.63723721 359.18701172 49.34057617 C352.72537288 47.60733658 346.5895985 45.34238625 340.40136719 42.80810547 C335.23746026 40.71481787 330.01566725 38.84666841 324.74951172 37.02807617 C323.92281982 36.73586182 323.09612793 36.44364746 322.24438477 36.14257812 C317.50682447 34.46957533 312.75595221 32.88687764 307.96044922 31.38745117 C294.22574083 26.91654494 286.71216948 22.67899521 279.18701172 10.34057617 C277.81505845 8.55117805 276.42232798 6.77730322 274.99951172 5.02807617 C272.18701172 1.46469795 272.18701172 1.46469795 272.18701172 0.34057617 C291.55456068 0.24697334 310.9220635 0.17651899 330.28979206 0.13332748 C339.2833597 0.11273639 348.27678647 0.08468212 357.27026367 0.03881836 C365.11254178 -0.00115547 372.95471783 -0.02688172 380.797095 -0.03577781 C384.94638949 -0.04097478 389.09539209 -0.05311677 393.24459267 -0.08234406 C397.15737306 -0.10968027 401.06974388 -0.11783249 404.9826107 -0.11185455 C406.41157641 -0.11294672 407.84055714 -0.12079178 409.2694397 -0.13624573 C423.67372636 -0.28427132 435.20795746 3.53651535 446.18701172 13.07885742 C453.64122158 20.84920565 459.30147702 32.05533783 459.3212328 42.8776865 C459.32569064 44.01097057 459.33014848 45.14425464 459.33474141 46.31188065 C459.33446487 48.17998592 459.33446487 48.17998592 459.33418274 50.08583069 C459.33748271 51.42200449 459.34120856 52.75817731 459.34532422 54.09434885 C459.3553373 57.76958771 459.3590599 61.44481024 459.36171353 65.1200608 C459.36561867 69.08275348 459.37519691 73.04543325 459.38392639 77.00811768 C459.40368557 86.58018423 459.41375663 96.15225183 459.42265418 105.72433367 C459.42703825 110.23319436 459.43240478 114.74205386 459.43764305 119.25091362 C459.4546553 134.24173393 459.46914892 149.23255351 459.47639179 164.223382 C459.47830166 168.11327681 459.48022199 172.00317162 459.48217773 175.89306641 C459.48266147 176.85986879 459.48314521 177.82667117 459.48364361 178.82277059 C459.49194186 194.48028202 459.51727532 210.137717 459.54975841 225.79519505 C459.58284397 241.87432278 459.60084193 257.95341169 459.60403603 274.03257364 C459.60619981 283.05880787 459.6149291 292.08493064 459.64049721 301.11113167 C459.66222471 308.79922354 459.67024458 316.48717687 459.66053043 324.17529596 C459.65599156 328.09568568 459.65784759 332.01578969 459.67729187 335.93614006 C459.69496651 339.53085674 459.69389156 343.1250802 459.67839458 346.71980243 C459.67490932 348.62424662 459.69101278 350.52869624 459.70799905 352.43306786 C459.61472158 364.95071483 455.5027063 376.48946803 446.92919922 385.78979492 C435.95601504 396.19540061 423.72820374 400.4609791 408.70061016 400.46921062 C407.61411796 400.47184018 407.61411796 400.47184018 406.50567642 400.47452286 C404.08373626 400.47916686 401.66185656 400.47672149 399.23991394 400.47428894 C397.48383403 400.47615772 395.72775453 400.47845869 393.97167569 400.48115426 C389.14972208 400.48727039 384.32778582 400.48713889 379.50582922 400.48595989 C374.30393734 400.48575584 369.10205103 400.49127506 363.90016174 400.49601746 C353.71022809 400.50432344 343.52030023 400.50707227 333.33036347 400.50762983 C325.04781526 400.508105 316.76526894 400.51015977 308.48272133 400.51333046 C285.00094693 400.52213673 261.5191771 400.52674985 238.03740104 400.52599999 C236.77152598 400.52596003 235.50565092 400.52592007 234.20141602 400.52587891 C232.3002856 400.52581759 232.3002856 400.52581759 230.36074851 400.52575503 C209.81732023 400.52534852 189.27391028 400.53491936 168.73048731 400.54901727 C147.63740464 400.5633782 126.54433091 400.57028762 105.45124322 400.5694235 C93.60876047 400.56909144 81.76629694 400.5718424 69.92381859 400.58260155 C59.84157121 400.59170279 49.75935176 400.59388487 39.67710205 400.58709212 C34.53364321 400.58382509 29.39023796 400.58377691 24.24678421 400.59244537 C19.53594748 400.60030305 14.8252069 400.59888638 10.11437253 400.59016124 C8.41253042 400.58862465 6.71068117 400.5904484 5.0088475 400.59602132 C-12.35507956 400.6491046 -26.71984958 398.7283606 -39.81298828 386.34057617 C-47.44463481 378.23380768 -52.92316928 368.07719766 -52.95000267 356.80905247 C-52.95761448 355.11097646 -52.95761448 355.11097646 -52.96538007 353.37859589 C-52.96587783 352.13455661 -52.96637559 350.89051734 -52.96688843 349.60877991 C-52.97090441 348.27403127 -52.97534286 346.93928386 -52.98016798 345.6045379 C-52.99212457 341.93316265 -52.99777983 338.26180054 -53.00234914 334.59040964 C-53.00830884 330.63176703 -53.01991791 326.67314009 -53.03063965 322.71450806 C-53.05515737 313.15133322 -53.069791 303.5881532 -53.08269972 294.02495661 C-53.08641247 291.3229235 -53.09038564 288.62089089 -53.09445238 285.91885829 C-53.11969253 269.1330423 -53.14174173 252.34722547 -53.15418053 235.56139469 C-53.15711014 231.6735795 -53.16007182 227.78576434 -53.16308594 223.89794922 C-53.16383199 222.93167146 -53.16457804 221.9653937 -53.1653467 220.9698348 C-53.17799266 205.32658848 -53.21120565 189.68345601 -53.25288777 174.04026289 C-53.29534959 157.9724264 -53.31888057 141.90464813 -53.32410109 125.83675569 C-53.32751066 116.81825301 -53.33921202 107.79992816 -53.37220383 98.78148079 C-53.40026409 91.09855122 -53.41117759 83.41583596 -53.40000837 75.73285914 C-53.3948367 71.81620915 -53.39761032 67.90000751 -53.42247391 63.98342323 C-53.44509597 60.38974725 -53.44412788 56.7968383 -53.42527004 53.2031477 C-53.42118143 51.30414346 -53.4415199 49.40513361 -53.46305692 47.5062471 C-53.33833454 33.87400575 -48.28116913 22.09443489 -38.81298828 12.34057617 C-26.85853962 2.38936393 -15.31868141 -0.12477751 0 0 Z " fill="#55606E" transform="translate(52.81298828125,80.659423828125)"/>
<path d="M0 0 C6.0546823 0.96874917 9.47981905 7.03776657 13.0625 11.6875 C13.75605591 12.57912842 13.75605591 12.57912842 14.46362305 13.48876953 C15.47358887 14.78779626 16.48207387 16.08797534 17.48925781 17.38916016 C19.2352469 19.64226787 20.98810295 21.8899086 22.7421875 24.13671875 C23.97410184 25.7160339 25.20587452 27.29545957 26.4375 28.875 C27.01169678 29.61129639 27.58589355 30.34759277 28.17749023 31.10620117 C31.87944123 35.86539292 35.52380251 40.66412954 39.125 45.5 C41.51129805 44.36938499 43.28866704 43.35971397 45.3125 41.625 C52.04509815 36.53814806 58.30709276 34.70098619 66.77734375 34.98828125 C74.76866442 36.20982502 82.27872359 40.43075154 87.65625 46.48046875 C94.27953281 55.58748261 94.7855814 63.62242624 94.125 74.5 C94.77573486 74.7266333 95.42646973 74.9532666 96.09692383 75.18676758 C99.04697907 76.2198004 101.99220503 77.2659764 104.9375 78.3125 C105.96166016 78.66892578 106.98582031 79.02535156 108.04101562 79.39257812 C109.02392578 79.74384766 110.00683594 80.09511719 111.01953125 80.45703125 C112.37848511 80.93619995 112.37848511 80.93619995 113.76489258 81.42504883 C117.60832814 83.1756071 117.60832814 83.1756071 119.125 85.5 C120.07073649 91.83056571 117.9650643 95.16530096 114.4453125 100.09375 C113.9585202 100.80293579 113.47172791 101.51212158 112.97018433 102.24279785 C111.41182 104.50604564 109.83175585 106.75305587 108.25 109 C107.22504403 110.47811488 106.20159252 111.95727418 105.1796875 113.4375 C103.15613609 116.36573103 101.12730081 119.29018423 99.09472656 122.2121582 C96.21935007 126.3553613 93.37095572 130.51561054 90.5546875 134.69921875 C90.14969025 135.29420166 89.74469299 135.88918457 89.3274231 136.50219727 C78.19513338 153.13272858 78.27255762 171.38737859 78.01951599 190.68351746 C77.97208622 194.21076421 77.91124525 197.73775117 77.85110474 201.26480103 C77.81287013 203.91187503 77.79681713 206.55852146 77.78100586 209.20581055 C77.7547872 210.86508843 77.72756662 212.52435087 77.69921875 214.18359375 C77.70117249 214.94746399 77.70312622 215.71133423 77.70513916 216.49835205 C77.62569031 219.94097449 77.16610909 222.41574511 75.65161133 225.51977539 C72.4301877 228.04455721 70.52040625 228.04779327 66.52249146 227.8145752 C62.71758139 227.3153324 59.15573232 226.37060674 55.49609375 225.234375 C54.70332535 224.9997052 53.91055695 224.7650354 53.09376526 224.52325439 C50.57975352 223.7769426 48.07107234 223.01437418 45.5625 222.25 C22.72906488 214.70704577 22.72906488 214.70704577 -0.9375 211.8125 C-1.90518311 211.81757568 -2.87286621 211.82265137 -3.86987305 211.82788086 C-14.11237232 212.1465879 -23.15987946 215.17969475 -32.77001953 218.48583984 C-38.4880391 220.35348046 -44.30900123 221.84629443 -50.125 223.375 C-52.31785149 223.95518836 -54.51057101 224.53587587 -56.703125 225.1171875 C-58.0938623 225.48239502 -58.0938623 225.48239502 -59.51269531 225.85498047 C-61.31632197 226.3474548 -63.101292 226.908764 -64.875 227.5 C-70.71317427 228.0560166 -70.71317427 228.0560166 -72.875 227.5 C-76.28833099 223.95071455 -77.37695322 221.67022101 -77.44921875 216.77026367 C-77.47604736 215.64106003 -77.50287598 214.51185638 -77.53051758 213.34843445 C-77.54107178 212.13388077 -77.55162598 210.91932709 -77.5625 209.66796875 C-77.59174561 208.40342361 -77.62099121 207.13887848 -77.65112305 205.83601379 C-77.74408175 201.78662469 -77.81307126 197.73744715 -77.875 193.6875 C-78.33626397 163.83815712 -82.1663715 145.38015909 -99.5625 121.17578125 C-105.10131712 113.42715087 -110.30147629 105.44305054 -115.55322266 97.49853516 C-116.65680174 95.82991706 -117.76529829 94.16455257 -118.875 92.5 C-119.3125 89.0625 -119.3125 89.0625 -118.875 85.5 C-114.673482 81.06312726 -109.21223461 79.61061931 -103.5625 77.75 C-102.63115234 77.43417969 -101.69980469 77.11835938 -100.74023438 76.79296875 C-98.45474767 76.0194194 -96.16651882 75.25545276 -93.875 74.5 C-93.94460937 73.55640625 -94.01421875 72.6128125 -94.0859375 71.640625 C-94.5280313 61.15668632 -92.82229426 53.86574926 -86.19921875 45.34375 C-81.22654173 39.94810965 -74.52614756 36.02869159 -67.16015625 35.19140625 C-58.42030175 34.84181207 -52.17410012 36.64136236 -44.875 41.5 C-43.50216209 42.792622 -42.15460235 44.11501863 -40.875 45.5 C-36.61216147 44.07905382 -34.96598905 40.89257926 -32.4375 37.375 C-31.36271843 35.90995858 -30.28584013 34.44645338 -29.20703125 32.984375 C-28.65611816 32.23736328 -28.10520508 31.49035156 -27.53759766 30.72070312 C-23.57520333 25.4282011 -19.38232911 20.31449848 -15.22509766 15.17480469 C-12.62690648 11.95173209 -10.06403143 8.70032362 -7.49609375 5.453125 C-3.47103659 0.60365854 -3.47103659 0.60365854 0 0 Z " fill="#F6E383" transform="translate(255.875,99.5)"/>
<path d="M0 0 C3.1875 1.375 3.1875 1.375 5 3 C5 3.66 5 4.32 5 5 C5.66 5 6.32 5 7 5 C7.28230469 5.57363281 7.56460938 6.14726562 7.85546875 6.73828125 C11.94038105 14.63258391 16.86796963 21.80901887 21.92578125 29.1015625 C25.14303231 33.74146367 28.31847 38.40832176 31.48046875 43.0859375 C31.95525162 43.78823486 32.43003448 44.49053223 32.91920471 45.21411133 C34.84392138 48.06216232 36.76789174 50.91071562 38.69094849 53.7598877 C40.04821328 55.77026379 41.40681494 57.77973066 42.765625 59.7890625 C43.38506233 60.70804825 43.38506233 60.70804825 44.01701355 61.64559937 C45.8412986 64.45562528 45.8412986 64.45562528 48 67 C48.1676073 69.11271022 48.26744714 71.23081624 48.34130859 73.34887695 C48.36589645 74.01249741 48.39048431 74.67611786 48.41581726 75.35984802 C48.46906927 76.8073809 48.520243 78.25499134 48.56962204 79.70266151 C48.64898013 82.00401744 48.73555866 84.30499349 48.82437134 86.60600281 C49.07625234 93.15109157 49.3197494 99.69643458 49.546875 106.24243164 C49.68625875 110.24464103 49.8382221 114.24621685 49.99776077 118.24767113 C50.05582648 119.76430393 50.10928756 121.28112114 50.15778732 122.79808998 C50.54835947 134.94759429 52.01214096 146.25941504 57.6875 157.1875 C58.03635254 157.86675537 58.38520508 158.54601074 58.74462891 159.24584961 C65.78856718 172.48130524 76.68396928 179.76249087 90 186 C91.98 186.99 91.98 186.99 94 188 C93.67 198.23 93.34 208.46 93 219 C86.33849861 217.66769972 81.05082753 216.54439018 75.0625 213.8125 C74.37575195 213.50280273 73.68900391 213.19310547 72.98144531 212.87402344 C51.19458356 202.81149066 34.64098167 185.02077533 25.09375 163.0234375 C20.37593892 149.98205972 18.90728562 136.96333853 18.7109375 123.171875 C18.65676225 120.65490821 18.60071389 118.13798117 18.54296875 115.62109375 C18.45423463 111.6868878 18.37504559 107.75378413 18.32763672 103.81884766 C18.27827269 99.99768864 18.18574584 96.17950884 18.0859375 92.359375 C18.08145599 91.19960144 18.07697449 90.03982788 18.07235718 88.84490967 C17.78376791 79.98122218 14.97392583 74.24357372 10 67 C9.04911751 65.56131561 9.04911751 65.56131561 8.07902527 64.09356689 C6.31467068 61.43437987 4.50668736 58.80943761 2.6875 56.1875 C1.37060383 54.27116991 0.05419907 52.35450204 -1.26171875 50.4375 C-1.89770996 49.51324219 -2.53370117 48.58898437 -3.18896484 47.63671875 C-7.19602467 41.80276808 -11.14802048 35.93754068 -15 30 C-15.55558594 29.154375 -16.11117187 28.30875 -16.68359375 27.4375 C-19.89341733 22.19994084 -21.51358701 17.20413106 -21 11 C-19.76633707 7.00963349 -17.45330399 4.4311916 -14.4375 1.5625 C-9.58249483 -0.64432053 -5.2516016 -0.67839838 0 0 Z " fill="#3C4757" transform="translate(67,203)"/>
<path d="M0 0 C0.77470642 -0.01283524 1.54941284 -0.02567047 2.34759521 -0.03889465 C3.17680481 -0.04628159 4.0060144 -0.05366852 4.86035156 -0.0612793 C5.72356018 -0.06935104 6.5867688 -0.07742279 7.47613525 -0.08573914 C9.30177825 -0.09955166 11.12744675 -0.11028644 12.953125 -0.11816406 C14.81127543 -0.12967616 16.66939298 -0.15011582 18.52734375 -0.1796875 C21.2219067 -0.22255337 23.91548912 -0.23855939 26.61035156 -0.2487793 C27.84202057 -0.27504143 27.84202057 -0.27504143 29.09857178 -0.30183411 C34.80123541 -0.2806437 39.38688083 0.67158498 44.00097656 4.17700195 C48.2490321 9.59030085 48.58461931 14.10577456 48.49707031 20.8371582 C48.49852554 21.74525742 48.49998077 22.65335663 48.5014801 23.588974 C48.49982762 25.49929021 48.48833972 27.40962065 48.4675293 29.31982422 C48.4385275 32.23438319 48.44694366 35.14712564 48.45996094 38.06176758 C48.45372394 39.92440657 48.44533331 41.78703986 48.43457031 43.6496582 C48.43750595 44.51542984 48.44044159 45.38120148 48.44346619 46.27320862 C48.35452796 52.0075883 47.51824951 56.41717926 43.50097656 60.8215332 C36.0271258 66.64101596 27.75902967 65.46978924 18.69702148 65.52709961 C16.78348601 65.54362493 14.8700114 65.57086964 12.95678711 65.60913086 C10.18603766 65.66420582 7.41673267 65.68582169 4.64550781 65.70043945 C3.79938431 65.72310883 2.9532608 65.7457782 2.08149719 65.76913452 C-4.04029046 65.7476096 -8.4570264 64.41115515 -12.99902344 60.17700195 C-17.05392033 54.86858364 -17.60528287 49.42392 -17.56542969 42.92700195 C-17.57162827 42.06945312 -17.57782684 41.2119043 -17.58421326 40.32836914 C-17.59127439 38.52662279 -17.58820268 36.72481068 -17.57543945 34.9230957 C-17.56155678 32.18358206 -17.59571695 29.44747893 -17.63378906 26.70825195 C-17.63474033 24.94783446 -17.63288105 23.18741274 -17.62792969 21.42700195 C-17.6411879 20.6184375 -17.65444611 19.80987305 -17.66810608 18.97680664 C-17.56980256 12.90276308 -15.75095808 8.93380265 -11.99902344 4.17700195 C-8.38805737 0.78488231 -4.85408279 0.07052207 0 0 Z " fill="#FAF1C0" transform="translate(427.9990234375,377.822998046875)"/>
<path d="M0 0 C0.89060623 -0.00570007 1.78121246 -0.01140015 2.69880676 -0.01727295 C4.58768524 -0.02673082 6.47658028 -0.03326005 8.36547852 -0.03710938 C11.24069549 -0.04677803 14.11518638 -0.07777835 16.99023438 -0.109375 C18.82681868 -0.11590885 20.66340809 -0.12115782 22.5 -0.125 C23.78163277 -0.1435202 23.78163277 -0.1435202 25.0891571 -0.16241455 C30.51538774 -0.14240556 34.27699438 0.62862669 39.08203125 3.203125 C41.39453125 5.640625 41.39453125 5.640625 43.08203125 8.203125 C43.43990723 8.73848877 43.7977832 9.27385254 44.16650391 9.82543945 C45.54875837 13.41524644 45.40746452 17.01307167 45.41796875 20.80859375 C45.42795395 22.0665551 45.42795395 22.0665551 45.43814087 23.34992981 C45.44825556 25.12429619 45.45295825 26.89870052 45.45263672 28.6730957 C45.45698835 31.36409811 45.49325886 34.05343058 45.53125 36.74414062 C45.53712304 38.47395277 45.54108917 40.20377265 45.54296875 41.93359375 C45.55733978 42.72767136 45.57171082 43.52174896 45.58651733 44.33988953 C45.53918601 50.24139234 44.44627208 55.26709195 41.08203125 60.203125 C36.6606239 64.48006951 32.12066746 65.77635329 26.07846069 65.84655762 C25.24174835 65.83016235 24.40503601 65.81376709 23.54296875 65.796875 C22.65848053 65.79691528 21.77399231 65.79695557 20.86270142 65.79699707 C19.00539996 65.79166736 17.1480971 65.77419466 15.29101562 65.74511719 C12.45762918 65.70313386 9.6266151 65.70406686 6.79296875 65.7109375 C4.98045234 65.70044745 3.16794808 65.68751034 1.35546875 65.671875 C0.51470795 65.67167358 -0.32605286 65.67147217 -1.19229126 65.67126465 C-6.8461373 65.55804298 -11.22516522 64.65926883 -15.5625 60.703125 C-18.61054053 56.78858466 -20.02765827 54.03483259 -20.0949707 49.10229492 C-20.10780594 48.28101608 -20.12064117 47.45973724 -20.13386536 46.61357117 C-20.14125229 45.72917862 -20.14863922 44.84478607 -20.15625 43.93359375 C-20.16432175 43.01983475 -20.17239349 42.10607574 -20.18070984 41.16462708 C-20.19453882 39.23045747 -20.20526628 37.29626358 -20.21313477 35.36206055 C-20.23034333 32.41212457 -20.27423926 29.46331079 -20.31835938 26.51367188 C-20.32848715 24.63282073 -20.33700299 22.75196007 -20.34375 20.87109375 C-20.36125809 19.9927739 -20.37876617 19.11445404 -20.39680481 18.20951843 C-20.37739926 12.69917788 -19.59379044 9.57170577 -15.91796875 5.203125 C-10.50267686 0.43251071 -7.06905105 0.03474969 0 0 Z " fill="#FAF1C0" transform="translate(55.91796875,377.796875)"/>
<path d="M0 0 C3.16694136 5.21199479 3.46733301 9.35856802 3.46875 15.2734375 C3.48017029 16.59729965 3.48017029 16.59729965 3.49182129 17.94790649 C3.50259055 19.80866681 3.50548834 21.66948742 3.50097656 23.53027344 C3.50000523 26.35976226 3.54164057 29.1865278 3.5859375 32.015625 C3.5911461 33.83072356 3.59383267 35.64583147 3.59375 37.4609375 C3.61014526 38.29764984 3.62654053 39.13436218 3.64343262 39.99642944 C3.57236992 46.11251313 2.10094226 50.38948537 -2 55 C-6.93143389 59.32456993 -12.07739318 59.59234698 -18.40625 59.53125 C-19.28978149 59.5350769 -20.17331299 59.53890381 -21.08361816 59.54284668 C-22.94263862 59.54555602 -24.80169783 59.53826362 -26.66064453 59.52148438 C-29.49208264 59.50005991 -32.32098374 59.52131855 -35.15234375 59.546875 C-36.96615138 59.54423155 -38.77995745 59.53910621 -40.59375 59.53125 C-41.43248657 59.53934692 -42.27122314 59.54744385 -43.13537598 59.55578613 C-48.89847247 59.46469644 -52.24835767 58.29612968 -57 55 C-60.94487468 50.84750034 -62.13180316 47.59537277 -62.11352539 41.96582031 C-62.11344986 41.18531311 -62.11337433 40.40480591 -62.11329651 39.60064697 C-62.10813522 38.76821472 -62.10297394 37.93578247 -62.09765625 37.078125 C-62.0962413 36.21813904 -62.09482635 35.35815308 -62.09336853 34.47210693 C-62.08778097 31.73136891 -62.07523075 28.99071324 -62.0625 26.25 C-62.05748339 24.3893241 -62.05292077 22.52864691 -62.04882812 20.66796875 C-62.03781561 16.11194754 -62.02055951 11.55598772 -62 7 C-61.39671875 7.06942307 -60.7934375 7.13884613 -60.171875 7.21037292 C-59.37265625 7.30103531 -58.5734375 7.39169769 -57.75 7.48510742 C-56.56664062 7.62017952 -56.56664062 7.62017952 -55.359375 7.75798035 C-38.6047541 9.47663361 -23.84597242 5.63027586 -7.953125 0.734375 C-5.16194602 0.04027229 -2.85925299 -0.14825756 0 0 Z " fill="#F7EDB6" transform="translate(223,384)"/>
<path d="M0 0 C5.90985096 0.50615129 11.21101694 1.87043713 16.88354492 3.578125 C32.34587246 8.18494571 46.07480771 9.36125099 62 7 C62.09926507 12.56838851 62.17165521 18.13625604 62.21972656 23.70532227 C62.23977703 25.5976662 62.26702477 27.48994868 62.30175781 29.38208008 C62.35056652 32.11034351 62.37303442 34.83778415 62.390625 37.56640625 C62.41127014 38.40522842 62.43191528 39.2440506 62.45318604 40.10829163 C62.45526935 45.62681935 61.72410545 49.77281291 58 54 C52.59997807 58.78658429 47.57358712 59.74989258 40.53125 59.6640625 C39.65150513 59.66884613 38.77176025 59.67362976 37.86535645 59.67855835 C36.01650185 59.68194115 34.16758611 59.67285285 32.31884766 59.65185547 C29.50676702 59.62506447 26.69867689 59.65165643 23.88671875 59.68359375 C22.08072045 59.68028936 20.27472462 59.67388252 18.46875 59.6640625 C17.22309265 59.67924423 17.22309265 59.67924423 15.95227051 59.69473267 C9.91064911 59.57487138 5.49248304 58.15851275 1 54 C-3.09355334 48.66239781 -3.58618108 43.21402728 -3.49609375 36.6796875 C-3.49754898 35.81739532 -3.49900421 34.95510315 -3.50050354 34.06668091 C-3.4988538 32.25649614 -3.48739709 30.44629598 -3.46655273 28.63623047 C-3.43750388 25.87536832 -3.44598185 23.11641942 -3.45898438 20.35546875 C-3.45274846 18.5885324 -3.44435867 16.82160206 -3.43359375 15.0546875 C-3.43652939 14.23580048 -3.43946503 13.41691345 -3.44248962 12.57321167 C-3.36172462 7.64132038 -2.61905195 4.32818631 0 0 Z " fill="#F9F0BC" transform="translate(289,384)"/>
<path d="M0 0 C0.89297791 -0.00570007 1.78595581 -0.01140015 2.70599365 -0.01727295 C4.59906833 -0.02672986 6.49215952 -0.03325967 8.38525391 -0.03710938 C11.27145476 -0.04678974 14.15693589 -0.07779591 17.04296875 -0.109375 C18.88280827 -0.11590764 20.72265289 -0.12115709 22.5625 -0.125 C23.42208313 -0.1373468 24.28166626 -0.1496936 25.16729736 -0.16241455 C30.91165895 -0.14123443 35.31638346 0.65423385 39.69140625 4.73828125 C42.58740352 8.52535461 44.15919963 10.62259624 44.23974609 15.3581543 C44.25580902 16.21632248 44.27187195 17.07449066 44.28842163 17.95866394 C44.33296011 21.89520458 44.37395991 25.83157654 44.39697266 29.76831055 C44.41350374 31.84101614 44.44075594 33.91366539 44.47900391 35.98608398 C44.53395167 38.97930386 44.55567665 41.97118646 44.5703125 44.96484375 C44.59298187 45.88488693 44.61565125 46.80493011 44.63900757 47.75285339 C44.61887932 53.92493631 43.48054114 57.79665749 39.046875 62.203125 C35.48877596 64.97053537 32.99324389 65.57094124 28.52734375 65.49609375 C27.50576172 65.48642578 26.48417969 65.47675781 25.43164062 65.46679688 C23.84899414 65.4290918 23.84899414 65.4290918 22.234375 65.390625 C20.62272461 65.37032227 20.62272461 65.37032227 18.97851562 65.34960938 C16.33412045 65.31435077 13.69075752 65.26506866 11.046875 65.203125 C10.96050781 64.41550781 10.87414062 63.62789062 10.78515625 62.81640625 C8.33728953 43.83982483 -0.06602328 28.38439397 -15.1484375 16.46875 C-16.71946866 15.33658989 -18.33111519 14.26095749 -19.953125 13.203125 C-19.47009226 8.89298672 -18.3513451 7.1796087 -15.015625 4.453125 C-14.30535156 3.86015625 -13.59507812 3.2671875 -12.86328125 2.65625 C-8.8103147 -0.42698836 -4.90619746 0.02403045 0 0 Z " fill="#FAF2C3" transform="translate(431.953125,117.796875)"/>
<path d="M0 0 C1.91353547 -0.01652533 3.82701009 -0.04377003 5.74023438 -0.08203125 C8.51098382 -0.13710621 11.28028881 -0.15872208 14.05151367 -0.17333984 C15.32069893 -0.2073439 15.32069893 -0.2073439 16.61552429 -0.24203491 C22.79799743 -0.22029661 26.90779833 1.41344634 31.69604492 5.35009766 C34.73922083 9.13101318 34.73922083 9.13101318 34.62963867 12.22509766 C33.21775852 15.43874954 30.50688845 16.86980915 27.69604492 18.78759766 C15.30697172 27.76886638 7.99919015 41.53854199 4.69604492 56.35009766 C4.30403535 59.34477306 3.98544836 62.34390405 3.69604492 65.35009766 C0.00896806 65.49635666 -3.6773549 65.58448604 -7.36645508 65.66259766 C-8.40479492 65.70449219 -9.44313477 65.74638672 -10.51293945 65.78955078 C-16.32461364 65.88179958 -20.27494869 65.5979415 -24.89941406 61.92114258 C-29.61914681 56.64190041 -29.75935328 52.26484301 -29.73754883 45.44775391 C-29.74279068 44.49243271 -29.74803253 43.53711151 -29.75343323 42.55284119 C-29.75984431 40.53645803 -29.75852828 38.52003742 -29.75 36.50366211 C-29.74149324 33.42640254 -29.77025922 30.35100197 -29.80200195 27.27392578 C-29.80361425 25.31103571 -29.80303588 23.34814237 -29.80004883 21.38525391 C-29.81128281 20.4694606 -29.82251678 19.5536673 -29.83409119 18.61012268 C-29.77337813 13.01627655 -29.04957628 9.77861506 -25.30395508 5.35009766 C-17.95841872 -1.27880101 -9.34227289 0.05908283 0 0 Z " fill="#FAF2C3" transform="translate(65.303955078125,117.64990234375)"/>
<path d="M0 0 C8.18846003 4.59246965 13.54989195 10.70062489 16.6875 19.5625 C16.99386284 22.2949253 17.16657305 24.7192118 17.125 27.4375 C17.11670166 28.14003906 17.10840332 28.84257812 17.09985352 29.56640625 C16.81021338 38.48855925 13.60090348 44.37062813 7.625 50.8359375 C-0.08308451 57.70483539 -9.49073538 58.32536289 -19.35205078 57.77587891 C-27.20339076 56.92132459 -32.80102357 51.91590024 -37.6171875 46.0078125 C-42.81986054 38.50349608 -44.815625 30.63862117 -43.3125 21.5625 C-40.07112341 12.22779357 -34.91635544 4.76037039 -26.0625 0.1875 C-17.50499192 -3.74895372 -8.62392374 -3.97183256 0 0 Z " fill="#FEFDFC" transform="translate(205.3125,137.4375)"/>
<path d="M0 0 C9.06650917 5.136494 14.60567361 11.31073271 17.625 21.4375 C18.97131327 30.57825855 17.20884678 38.40267101 11.859375 45.91796875 C6.86128543 51.94912802 2.05534531 54.96071823 -5.375 57.4375 C-14.86594245 58.19160439 -23.48301158 58.50826032 -31.375 52.4375 C-38.1438982 46.33039802 -41.87817081 40.79535114 -42.71875 31.73046875 C-43.20939511 22.15890469 -41.83610854 15.03554154 -35.765625 7.41796875 C-26.48611366 -2.69159062 -12.56883334 -5.95949727 0 0 Z " fill="#FEFDFC" transform="translate(332.375,137.5625)"/>
<path d="M0 0 C3.98895299 4.35158508 5.65978324 8.4442537 5.4140625 14.296875 C4.63057229 18.6495984 1.90065729 21.41184271 -1.125 24.4375 C-11.1840704 30.92001204 -24.15776546 31.40390225 -35.8125 31.5 C-36.50150391 31.50926514 -37.19050781 31.51853027 -37.90039062 31.52807617 C-43.08136737 31.49628721 -46.67130193 30.56654952 -51.9375 29.25 C-51.9375 19.02 -51.9375 8.79 -51.9375 -1.75 C-48.9675 -1.42 -45.9975 -1.09 -42.9375 -0.75 C-40.17339931 -0.61440261 -37.45047671 -0.51365718 -34.6875 -0.5 C-33.5900647 -0.49299072 -33.5900647 -0.49299072 -32.47045898 -0.48583984 C-27.75422507 -0.53210263 -23.58225522 -1.14945008 -19 -2.375 C-11.89862238 -4.25033251 -6.34691307 -3.7811397 0 0 Z " fill="#F5C98D" transform="translate(212.9375,392.75)"/>
<path d="M0 0 C2.17300022 -0.00968252 4.34504502 -0.04069388 6.51782227 -0.07226562 C7.90518645 -0.07879831 9.29255739 -0.08404774 10.67993164 -0.08789062 C11.93974854 -0.09723633 13.19956543 -0.10658203 14.49755859 -0.11621094 C19.29627822 0.38961035 21.79292972 2.18337102 25.19165039 5.49023438 C27.39570946 9.08203435 27.46239066 11.08464748 26.87915039 15.24023438 C24.56709336 19.69308495 22.36680706 22.06202651 17.87915039 24.24023438 C13.45880029 24.79964885 9.03753039 24.75551996 4.58691406 24.74121094 C2.45053324 24.74023842 0.31774779 24.78189509 -1.81811523 24.82617188 C-13.22341703 24.92508499 -13.22341703 24.92508499 -17.00756836 21.82617188 C-19.91369094 18.27006624 -20.93207268 16.49088155 -21.62084961 11.92773438 C-20.95483084 7.01584594 -18.70940794 4.53129564 -15.12084961 1.24023438 C-10.7465618 -0.94690953 -4.86124826 0.01312816 0 0 Z " fill="#3C3C44" transform="translate(253.120849609375,181.759765625)"/>
<path d="M0 0 C3.5386994 1.65139305 4.81070153 2.71605229 7 6 C8.26380937 13.15886856 5.53513031 17.08184264 1.55664062 22.94140625 C0.44579102 24.51728516 0.44579102 24.51728516 -0.6875 26.125 C-1.7693457 27.71248047 -1.7693457 27.71248047 -2.87304688 29.33203125 C-12.63715419 43.54571806 -12.63715419 43.54571806 -17 45 C-20.375 45.375 -20.375 45.375 -24 45 C-27.82285258 41.84199135 -29.82906027 39.74827145 -30.31347656 34.79394531 C-29.94947712 30.38853156 -28.47367661 27.79826786 -25.984375 24.296875 C-25.57213684 23.6924054 -25.15989868 23.08793579 -24.73516846 22.46514893 C-23.86509966 21.19610534 -22.98723082 19.93237794 -22.10205078 18.67382812 C-20.75187545 16.75266857 -19.42706745 14.81589858 -18.10546875 12.875 C-17.25403659 11.63963653 -16.40121786 10.4052273 -15.546875 9.171875 C-15.15191833 8.59685242 -14.75696167 8.02182983 -14.35003662 7.42938232 C-10.1488941 1.48553705 -7.45377287 -0.78460767 0 0 Z " fill="#FECAD1" transform="translate(405,199)"/>
<path d="M0 0 C3.97494523 2.35524792 7.29344647 5.0209984 9.65234375 9.05078125 C10.21484375 12.05078125 10.21484375 12.05078125 9.65234375 15.05078125 C7.58984375 17.98828125 7.58984375 17.98828125 4.65234375 20.05078125 C1.08984375 20.11328125 1.08984375 20.11328125 -2.34765625 19.05078125 C-3.70017122 17.73690956 -5.03711002 16.40651873 -6.34765625 15.05078125 C-9.36702211 15.05078125 -10.43765404 16.12893723 -12.72265625 18.11328125 C-15.34765625 20.05078125 -15.34765625 20.05078125 -18.41015625 20.61328125 C-21.34765625 20.05078125 -21.34765625 20.05078125 -23.72265625 17.92578125 C-25.68982184 14.44541136 -26.13402522 12.9826261 -25.34765625 9.05078125 C-19.79586552 0.13369271 -10.12192413 -4.09255834 0 0 Z " fill="#3E3E47" transform="translate(200.34765625,155.94921875)"/>
<path d="M0 0 C3.97494523 2.35524792 7.29344647 5.0209984 9.65234375 9.05078125 C10.21484375 12.05078125 10.21484375 12.05078125 9.65234375 15.05078125 C7.58984375 17.98828125 7.58984375 17.98828125 4.65234375 20.05078125 C1.08984375 20.11328125 1.08984375 20.11328125 -2.34765625 19.05078125 C-3.70017122 17.73690956 -5.03711002 16.40651873 -6.34765625 15.05078125 C-9.39726336 15.05078125 -10.40949657 16.10760749 -12.66015625 18.17578125 C-15.34765625 20.05078125 -15.34765625 20.05078125 -18.97265625 20.05078125 C-22.34765625 19.05078125 -22.34765625 19.05078125 -24.28515625 17.36328125 C-25.74396803 14.18822032 -25.96055703 12.52388568 -25.34765625 9.05078125 C-19.81914561 0.12157162 -10.10453857 -4.08552891 0 0 Z " fill="#3E3E47" transform="translate(327.34765625,155.94921875)"/>
<path d="M0 0 C4.53289397 0.86340837 7.21954487 3.26604404 10.15234375 6.671875 C11.63606392 10.51209191 11.63580941 13.54365934 10.21484375 17.421875 C5.70996452 22.13152146 1.79478618 24.12581603 -4.59765625 24.859375 C-9.47680162 24.74827492 -13.10028092 22.49260444 -16.78515625 19.421875 C-19.08149449 15.97736763 -19.3253211 13.48375217 -19.78515625 9.421875 C-19.26566406 9.19113281 -18.74617188 8.96039063 -18.2109375 8.72265625 C-14.53989308 7.00588317 -12.08061402 5.75521197 -9.34765625 2.671875 C-6.10492167 -0.17540415 -4.20428938 -0.25183763 0 0 Z " fill="#EAAECB" transform="translate(349.78515625,183.578125)"/>
<path d="M0 0 C2.32694849 1.57314827 4.21021609 3.27078621 6.17578125 5.2734375 C8.02072661 7.01961705 9.68537941 7.98831153 12 9 C12.30557956 12.89613934 12.39288926 15.3085149 10.4375 18.75 C5.9372509 22.90407609 1.03921261 24.59436263 -5.01171875 24.359375 C-8.59822012 23.71112721 -11.00127374 22.05794939 -14 20 C-14.61875 19.5875 -15.2375 19.175 -15.875 18.75 C-17.82208811 15.72119628 -18.21982153 12.51714451 -18 9 C-14.30880725 1.47564555 -8.26569754 -1.98376741 0 0 Z " fill="#EAAECB" transform="translate(169,184)"/>
<path d="M0 0 C4.95628696 1.04582202 8.04429972 5.08471376 11.06640625 8.88671875 C12.51652837 12.38407209 12.65612066 14.6928161 12.12890625 18.44921875 C10.33541246 21.41844736 8.27986483 23.87373946 5.12890625 25.44921875 C1.27280931 25.81300148 -1.09559104 25.89236316 -4.49609375 23.94921875 C-8.36007151 19.88187374 -11.48766138 15.89360008 -12.37109375 10.26171875 C-11.79480074 7.02007058 -10.84220152 5.07736245 -8.87109375 2.44921875 C-5.71716193 0.34659753 -3.76357803 -0.09010408 0 0 Z " fill="#FEC9D0" transform="translate(406.87109375,154.55078125)"/>
</svg>
